<?xml version="1.0" encoding="UTF-8"?>
<svg version="1.1" viewBox="0 0 408.20163 800.00015" xmlns="http://www.w3.org/2000/svg" xmlns:xlink="http://www.w3.org/1999/xlink">
 <defs>
  <linearGradient id="a">
   <stop stop-color="#c01b1b" offset="0"/>
   <stop stop-color="#e77e66" offset="1"/>
  </linearGradient>
  <pattern id="b" width="30.066020" height="5.1805778" patternUnits="userSpaceOnUse">
   <path d="m7.597 0.061c-2.518-0.248-4.941 0.241-7.607 1.727v1.273c2.783-1.63 5.183-2.009 7.482-1.781 2.298 0.228 4.497 1.081 6.781 1.938 4.567 1.713 9.551 3.458 15.813-0.157l-4e-3 -1.273c-6.44 3.709-10.816 1.982-15.371 0.273-2.278-0.854-4.576-1.75-7.094-2z"/>
  </pattern>
  <radialGradient id="j" cx="173.95" cy="398.35" r="28.255" gradientTransform="matrix(1.0247 -2.5397 2.5581 1.0321 -1021.9 444.6)" gradientUnits="userSpaceOnUse" xlink:href="#a"/>
  <radialGradient id="k" cx="265.11" cy="377.07" r="56.222" gradientTransform="matrix(.73961 -.91501 .78974 .63835 -221.07 380.11)" gradientUnits="userSpaceOnUse" xlink:href="#a"/>
  <radialGradient id="l" cx="155.74" cy="341.35" r="7.4941" gradientTransform="matrix(-.93091 .33748 -.17739 -.48932 361.28 456.12)" gradientUnits="userSpaceOnUse" xlink:href="#a"/>
  <linearGradient id="i" x1="212.89" x2="208.14" y1="211.87" y2="213.26" gradientUnits="userSpaceOnUse">
   <stop stop-color="#020202" offset="0"/>
   <stop stop-color="#020202" stop-opacity="0" offset="1"/>
  </linearGradient>
  <radialGradient id="m" cx="127.37" cy="497.79" r="41.359" gradientTransform="matrix(3.4332 .30455 -.50052 5.6424 -83.891 -2341.5)" gradientUnits="userSpaceOnUse" xlink:href="#a"/>
  <radialGradient id="n" cx="315.31" cy="537.99" r="75.022" gradientTransform="matrix(2.8506 .32166 -.33161 2.9388 -428.03 -1140.9)" gradientUnits="userSpaceOnUse" xlink:href="#a"/>
 </defs>
 <g transform="matrix(1.6855 0 0 1.6855 -151.27 -175.39)">
  <g transform="matrix(-.38556 .09123 .09123 .38556 328.32 41.83)" fill="#fff" stroke="#000" stroke-width="2.5239">
   <path d="m617.98 406.62c25.307 24.33 39.942 61.465 76.019 72.875l-20.825 21.721c-34.911-17.72-51.042-48.369-76.019-72.875l20.825-21.721z" color="#000000"/>
   <path d="m604.28 409.44c24.311 25.325 37.444 63.018 73.035 75.867l-21.69 20.86c-34.17-19.1-49.06-50.38-73.03-75.87l21.68-20.86z" color="#000000"/>
  </g>
  <path transform="matrix(.94127 .33765 -.33765 .94127 121.5 -44.167)" d="m102.74 236.67c-20.476 23.436-28.979 73.393-21.371 82.981 3.8709 3.5342 23.558-13.923 39.486-12.457l-0.0515-0.48336c-2.4763-5.3329-4.8258-10.682-7.0326-15.872-7.7617-18.257-11.351-37.013-11.03-54.169z" color="#000000"/>
  <g transform="matrix(.22069 .15949 -.15949 .22069 203.09 55.191)" fill="#e60e0e" stroke="#000" stroke-width="3.6726">
   <path d="m463.62 72.355 33.873 0.36079c4.7492 19.053-57.57 36.489-58.689 71.694l-27.669-4.2819c-0.52494-37.578 54.458-46.446 52.486-67.773z" color="#000000"/>
   <path d="m518.28 80.375 31.67 12.021c-2.1128 19.522-66.621 14.396-79.813 47.055l-24.495-13.562c12.466-35.453 67.134-24.815 72.638-45.514z" color="#000000"/>
   <path d="m570.26 102.26 35.173 21.518c-7.5549 18.21-69.638-3.4925-109.08 20.394l-26.077-20.757c37.294-22.96 87.891-2.8844 99.98-21.155z" color="#000000"/>
  </g>
  <g transform="matrix(.37294 .13378 -.13378 .37294 130.88 44.157)" fill="#fff" stroke="#000">
   <path transform="matrix(.59726 .57256 -.57259 .59723 836.32 887.29)" d="m-608.11-220.43c42.43 0.06 86.26 20.22 127.28 0v36.37c-45.28 13.74-84.99 0.49-127.28 0v-36.37z" color="#000000" stroke-width="3.0506"/>
   <path d="m582.18 408.74c24.311 25.325 37.444 63.018 73.035 75.867l-21.679 20.868c-34.172-19.106-49.06-50.378-73.035-75.867l21.679-20.868z" color="#000000" stroke-width="2.5239"/>
  </g>
  <g transform="matrix(.94127 .33765 -.33765 .94127 121.5 -44.167)">
   <g transform="matrix(.93914 -.34352 .34352 .93914 -106.55 112.3)" fill-rule="evenodd" stroke="#000" stroke-width="1px">
    <path d="m252.72 304.54c-30.508-0.96278-62.759 23.21-69.811 45.072 10.737 16.288 16.958 41.554 24.961 63.246v-0.0119l-0.23772-0.61016c20.167-54.256 5.7054-104.82 82.173-83.041 6.0223 0.95882 10.856 3.1815 14.62 6.0897-24.406-26.93-41.839-30.436-51.705-30.746z" fill="#2b519b"/>
    <path d="m182.92 349.61c-11.158 6.5604-21.577 14.845-28.994 25.567 10.979 4.2291 18.304 14.151 24.563 23.64 10.185 15.742 17.618 33.15 28.576 48.406-2.5463-3.9488-5.0926-7.8977-7.6388-11.847 2.8857-8.0895 5.4149-16.303 7.7022-24.581-6.4321-17.509-10.988-35.79-19.373-52.526-1.5284-2.9316-3.138-5.824-4.8349-8.6595zm24.279 97.835c0.58119 1.3944 3.4566 4.162 0.9985 1.2986-0.36734-0.38063-0.67337-0.75146-0.9985-1.2986z" fill="url(#j)"/>
   </g>
   <path d="m155.75 169.06c-7.2704 0.0128-14.375 1.608-21.062 4.9375-32.913 16.407-41.504 68.127-21 116.38 18.701 44 47.564 99.851 80.438 56.594 15.072 15.094 19.273 44.404 35.827 60.652 3.2887-6.2669-4.8399-22.171 1.11-29.058 2.1958-5.9547 4.9072-11.673 8.625-16.938 5.6458-8.1543 14.746-13.039 24.375-14.688-5.8026-7.3121-14.683-20.533-21.25-39.312-8.0866-23.13-3.7566-47.632-14.938-73.938-16.34-38.444-43.614-64.672-72.125-64.625z" color="#000000" fill="#faf0ef" stroke="#000" stroke-width=".99999"/>
   <path d="m310.02 337.66c-2.7-9.7112-15.322-19.375-32.343-16.047-79.291 5.8166-48.033 52.358-47.399 131l12.298 9.297c11.18-54.02-38.32-122.91 67.44-124.25z" fill="#2b519b" fill-rule="evenodd" stroke="#000" stroke-width="1px"/>
   <path d="m268.17 343.98c-11.791 4.0406-22.173 13.274-25.384 25.599-4.7172 17.435-0.96412 35.585 0.46716 53.206 1.2214 12.986 1.9814 26.231-0.641 39.102 3.2665 2.185 1.6473-5.6498 2.6488-8.1462 2.9416-25.288 5.9861-51.273 17.466-74.349 7.2404-14.764 20.309-27.226 36.66-30.915 6.1342-1.5213 12.488-2.0335 18.795-1.8522-3.2627-2.5787-5.6189-8.4834-9.4913-8.8682-13.67 0.32046-27.588 1.4799-40.519 6.2235zm-26.78 117.08c-0.0783 0.18733 0.64889 0.27157 0 0z" fill="url(#k)" fill-rule="evenodd" stroke="#000"/>
   <g transform="matrix(.93914 -.34352 .34352 .93914 -106.55 112.3)">
    <path transform="matrix(.99998 .0062478 -.0062478 .99998 26.289 -6.8455)" d="m308.88 418.5c-2.8208 0.29335-6.9654 3.0765-10.312 1.6875-3.7296-1.1362-7.6487-1.7636-11.562-1.6562-19.835 0.62659-35.733 15.07-48.531 28.844-17.847 20.193-32.439 43.041-45.906 66.312-8.4534 15.137-17.327 30.269-25.875 45.406h154.66c-0.56744-43.441-4.3508-94.647-9.2812-137-0.28137-3.0384-1.495-3.7698-3.1875-3.5938z" fill="url(#n)" fill-rule="evenodd"/>
    <path transform="matrix(.99998 .0062478 -.0062478 .99998 26.289 -6.8455)" d="m104.78 435.66c-3.6911 24.746-7.8659 49.438-11.25 74.219l-3.3125 49.219h31.969c17.052-23.999 33.88-48.171 49.844-72.906-19.529-16.526-35.329-38.671-60.062-48-2.3543-0.94489-4.7615-1.7899-7.1875-2.5312z" fill="#62cfc9" fill-rule="evenodd" stroke="#000" stroke-width="2.1152"/>
    <path transform="matrix(.99998 .0062478 -.0062478 .99998 26.289 -6.8455)" d="m104.78 435.66c-3.6911 24.746-7.8659 49.438-11.25 74.219l-3.3125 49.219h31.969c17.052-23.999 33.88-48.171 49.844-72.906-19.529-16.526-35.329-38.671-60.062-48-2.3543-0.94489-4.7615-1.7899-7.1875-2.5312z" fill="url(#m)" fill-rule="evenodd"/>
    <g fill="#fff" fill-opacity=".69531">
     <g transform="matrix(.39621 0 0 .39621 -309.04 289.04)">
      <g transform="matrix(.68132 -.73198 .73198 .68132 27.213 1048.5)" fill="#fff" fill-opacity=".69531">
       <path transform="matrix(.23093 0 0 .2309 965.71 392.28)" d="m966.72 436.17a13.135 99.018 0 1 1 -26.27 0 13.135 99.018 0 1 1 26.27 0z" color="#000000"/>
       <path transform="matrix(.15791 0 0 .16022 1046.4 423.11)" d="m966.72 436.17a13.135 99.018 0 1 1 -26.27 0 13.135 99.018 0 1 1 26.27 0z" color="#000000"/>
       <path transform="matrix(.087332 0 0 .091889 1124.4 452.92)" d="m966.72 436.17a13.135 99.018 0 1 1 -26.27 0 13.135 99.018 0 1 1 26.27 0z" color="#000000"/>
       <path transform="matrix(.14211 0 0 .14209 1060.2 429.61)" d="m1137.4 446.27a26.264 26.264 0 1 1 -52.5 0 26.264 26.264 0 1 1 52.5 0z" color="#000000"/>
       <path transform="matrix(-.23093 0 0 .2309 1469.8 392.28)" d="m966.72 436.17a13.135 99.018 0 1 1 -26.27 0 13.135 99.018 0 1 1 26.27 0z" color="#000000"/>
       <path transform="matrix(-.15791 0 0 .16022 1389.1 423.11)" d="m966.72 436.17a13.135 99.018 0 1 1 -26.27 0 13.135 99.018 0 1 1 26.27 0z" color="#000000"/>
       <path transform="matrix(-.087332 0 0 .091889 1311.2 452.92)" d="m966.72 436.17a13.135 99.018 0 1 1 -26.27 0 13.135 99.018 0 1 1 26.27 0z" color="#000000"/>
       <path transform="matrix(.0023889 -.23089 -.23092 -.0023886 1316.3 745.66)" d="m966.72 436.17a13.135 99.018 0 1 1 -26.27 0 13.135 99.018 0 1 1 26.27 0z" color="#000000"/>
       <path transform="matrix(.0016336 -.15788 -.16023 -.0016574 1286.3 664.65)" d="m966.72 436.17a13.135 99.018 0 1 1 -26.27 0 13.135 99.018 0 1 1 26.27 0z" color="#000000"/>
       <path transform="matrix(.00090342 -.087316 -.091895 -.00095057 1257.3 586.42)" d="m966.72 436.17a13.135 99.018 0 1 1 -26.27 0 13.135 99.018 0 1 1 26.27 0z" color="#000000"/>
       <path transform="matrix(-.0023889 .23089 .23092 .0023886 1120 240.33)" d="m966.72 436.17a13.135 99.018 0 1 1 -26.27 0 13.135 99.018 0 1 1 26.27 0z" color="#000000"/>
       <path transform="matrix(-.0016336 .15788 .16023 .0016574 1150 321.34)" d="m966.72 436.17a13.135 99.018 0 1 1 -26.27 0 13.135 99.018 0 1 1 26.27 0z" color="#000000"/>
       <path transform="matrix(-.00090342 .087316 .091895 .00095057 1179 399.57)" d="m966.72 436.17a13.135 99.018 0 1 1 -26.27 0 13.135 99.018 0 1 1 26.27 0z" color="#000000"/>
      </g>
     </g>
     <g transform="matrix(.3448 -.19517 .19517 .3448 -366.78 515.2)">
      <path transform="matrix(.23093 0 0 .2309 965.71 392.28)" d="m966.72 436.17a13.135 99.018 0 1 1 -26.27 0 13.135 99.018 0 1 1 26.27 0z" color="#000000"/>
      <path transform="matrix(.15791 0 0 .16022 1046.4 423.11)" d="m966.72 436.17a13.135 99.018 0 1 1 -26.27 0 13.135 99.018 0 1 1 26.27 0z" color="#000000"/>
      <path transform="matrix(.087332 0 0 .091889 1124.4 452.92)" d="m966.72 436.17a13.135 99.018 0 1 1 -26.27 0 13.135 99.018 0 1 1 26.27 0z" color="#000000"/>
      <path transform="matrix(.14211 0 0 .14209 1060.2 429.61)" d="m1137.4 446.27a26.264 26.264 0 1 1 -52.5 0 26.264 26.264 0 1 1 52.5 0z" color="#000000"/>
      <path transform="matrix(-.23093 0 0 .2309 1469.8 392.28)" d="m966.72 436.17a13.135 99.018 0 1 1 -26.27 0 13.135 99.018 0 1 1 26.27 0z" color="#000000"/>
      <path transform="matrix(-.087332 0 0 .091889 1311.2 452.92)" d="m966.72 436.17a13.135 99.018 0 1 1 -26.27 0 13.135 99.018 0 1 1 26.27 0z" color="#000000"/>
      <path transform="matrix(.0023889 -.23089 -.23092 -.0023886 1316.3 745.66)" d="m966.72 436.17a13.135 99.018 0 1 1 -26.27 0 13.135 99.018 0 1 1 26.27 0z" color="#000000"/>
      <path transform="matrix(.0016336 -.15788 -.16023 -.0016574 1286.3 664.65)" d="m966.72 436.17a13.135 99.018 0 1 1 -26.27 0 13.135 99.018 0 1 1 26.27 0z" color="#000000"/>
      <path transform="matrix(.00090342 -.087316 -.091895 -.00095057 1257.3 586.42)" d="m966.72 436.17a13.135 99.018 0 1 1 -26.27 0 13.135 99.018 0 1 1 26.27 0z" color="#000000"/>
      <path transform="matrix(-.0023889 .23089 .23092 .0023886 1120 240.33)" d="m966.72 436.17a13.135 99.018 0 1 1 -26.27 0 13.135 99.018 0 1 1 26.27 0z" color="#000000"/>
      <path transform="matrix(-.0016336 .15788 .16023 .0016574 1150 321.34)" d="m966.72 436.17a13.135 99.018 0 1 1 -26.27 0 13.135 99.018 0 1 1 26.27 0z" color="#000000"/>
      <path transform="matrix(-.00090342 .087316 .091895 .00095057 1179 399.57)" d="m966.72 436.17a13.135 99.018 0 1 1 -26.27 0 13.135 99.018 0 1 1 26.27 0z" color="#000000"/>
     </g>
     <g transform="matrix(.38107 .10846 -.10846 .38107 -120.63 103.4)">
      <path transform="matrix(.23093 0 0 .2309 965.71 392.28)" d="m966.72 436.17a13.135 99.018 0 1 1 -26.27 0 13.135 99.018 0 1 1 26.27 0z" color="#000000"/>
      <path transform="matrix(.087332 0 0 .091889 1124.4 452.92)" d="m966.72 436.17a13.135 99.018 0 1 1 -26.27 0 13.135 99.018 0 1 1 26.27 0z" color="#000000"/>
      <path transform="matrix(.14211 0 0 .14209 1060.2 429.61)" d="m1137.4 446.27a26.264 26.264 0 1 1 -52.5 0 26.264 26.264 0 1 1 52.5 0z" color="#000000"/>
      <path transform="matrix(-.23093 0 0 .2309 1469.8 392.28)" d="m966.72 436.17a13.135 99.018 0 1 1 -26.27 0 13.135 99.018 0 1 1 26.27 0z" color="#000000"/>
      <path transform="matrix(-.15791 0 0 .16022 1389.1 423.11)" d="m966.72 436.17a13.135 99.018 0 1 1 -26.27 0 13.135 99.018 0 1 1 26.27 0z" color="#000000"/>
      <path transform="matrix(-.087332 0 0 .091889 1311.2 452.92)" d="m966.72 436.17a13.135 99.018 0 1 1 -26.27 0 13.135 99.018 0 1 1 26.27 0z" color="#000000"/>
      <path transform="matrix(.0023889 -.23089 -.23092 -.0023886 1316.3 745.66)" d="m966.72 436.17a13.135 99.018 0 1 1 -26.27 0 13.135 99.018 0 1 1 26.27 0z" color="#000000"/>
      <path transform="matrix(.0016336 -.15788 -.16023 -.0016574 1286.3 664.65)" d="m966.72 436.17a13.135 99.018 0 1 1 -26.27 0 13.135 99.018 0 1 1 26.27 0z" color="#000000"/>
      <path transform="matrix(.00090342 -.087316 -.091895 -.00095057 1257.3 586.42)" d="m966.72 436.17a13.135 99.018 0 1 1 -26.27 0 13.135 99.018 0 1 1 26.27 0z" color="#000000"/>
      <path transform="matrix(-.0023889 .23089 .23092 .0023886 1120 240.33)" d="m966.72 436.17a13.135 99.018 0 1 1 -26.27 0 13.135 99.018 0 1 1 26.27 0z" color="#000000"/>
      <path transform="matrix(-.00090342 .087316 .091895 .00095057 1179 399.57)" d="m966.72 436.17a13.135 99.018 0 1 1 -26.27 0 13.135 99.018 0 1 1 26.27 0z" color="#000000"/>
     </g>
     <g transform="matrix(.39621 0 0 .39621 -240.97 284.46)">
      <g transform="matrix(.78727 -.61661 .61661 .78727 -44.928 855.77)" fill="#fff" fill-opacity=".69531">
       <path transform="matrix(.23093 0 0 .2309 965.71 392.28)" d="m966.72 436.17a13.135 99.018 0 1 1 -26.27 0 13.135 99.018 0 1 1 26.27 0z" color="#000000"/>
       <path transform="matrix(.15791 0 0 .16022 1046.4 423.11)" d="m966.72 436.17a13.135 99.018 0 1 1 -26.27 0 13.135 99.018 0 1 1 26.27 0z" color="#000000"/>
       <path transform="matrix(.087332 0 0 .091889 1124.4 452.92)" d="m966.72 436.17a13.135 99.018 0 1 1 -26.27 0 13.135 99.018 0 1 1 26.27 0z" color="#000000"/>
       <path transform="matrix(.14211 0 0 .14209 1060.2 429.61)" d="m1137.4 446.27a26.264 26.264 0 1 1 -52.5 0 26.264 26.264 0 1 1 52.5 0z" color="#000000"/>
       <path transform="matrix(-.23093 0 0 .2309 1469.8 392.28)" d="m966.72 436.17a13.135 99.018 0 1 1 -26.27 0 13.135 99.018 0 1 1 26.27 0z" color="#000000"/>
       <path transform="matrix(-.15791 0 0 .16022 1389.1 423.11)" d="m966.72 436.17a13.135 99.018 0 1 1 -26.27 0 13.135 99.018 0 1 1 26.27 0z" color="#000000"/>
       <path transform="matrix(-.087332 0 0 .091889 1311.2 452.92)" d="m966.72 436.17a13.135 99.018 0 1 1 -26.27 0 13.135 99.018 0 1 1 26.27 0z" color="#000000"/>
       <path transform="matrix(.0023889 -.23089 -.23092 -.0023886 1316.3 745.66)" d="m966.72 436.17a13.135 99.018 0 1 1 -26.27 0 13.135 99.018 0 1 1 26.27 0z" color="#000000"/>
       <path transform="matrix(.0016336 -.15788 -.16023 -.0016574 1286.3 664.65)" d="m966.72 436.17a13.135 99.018 0 1 1 -26.27 0 13.135 99.018 0 1 1 26.27 0z" color="#000000"/>
       <path transform="matrix(.00090342 -.087316 -.091895 -.00095057 1257.3 586.42)" d="m966.72 436.17a13.135 99.018 0 1 1 -26.27 0 13.135 99.018 0 1 1 26.27 0z" color="#000000"/>
       <path transform="matrix(-.0023889 .23089 .23092 .0023886 1120 240.33)" d="m966.72 436.17a13.135 99.018 0 1 1 -26.27 0 13.135 99.018 0 1 1 26.27 0z" color="#000000"/>
       <path transform="matrix(-.0016336 .15788 .16023 .0016574 1150 321.34)" d="m966.72 436.17a13.135 99.018 0 1 1 -26.27 0 13.135 99.018 0 1 1 26.27 0z" color="#000000"/>
       <path transform="matrix(-.00090342 .087316 .091895 .00095057 1179 399.57)" d="m966.72 436.17a13.135 99.018 0 1 1 -26.27 0 13.135 99.018 0 1 1 26.27 0z" color="#000000"/>
      </g>
     </g>
     <g transform="matrix(.15547 -.36443 .36443 .15547 -81.367 838.03)">
      <path transform="matrix(.23093 0 0 .2309 965.71 392.28)" d="m966.72 436.17a13.135 99.018 0 1 1 -26.27 0 13.135 99.018 0 1 1 26.27 0z" color="#000000"/>
      <path transform="matrix(.15791 0 0 .16022 1046.4 423.11)" d="m966.72 436.17a13.135 99.018 0 1 1 -26.27 0 13.135 99.018 0 1 1 26.27 0z" color="#000000"/>
      <path transform="matrix(.087332 0 0 .091889 1124.4 452.92)" d="m966.72 436.17a13.135 99.018 0 1 1 -26.27 0 13.135 99.018 0 1 1 26.27 0z" color="#000000"/>
      <path transform="matrix(.14211 0 0 .14209 1060.2 429.61)" d="m1137.4 446.27a26.264 26.264 0 1 1 -52.5 0 26.264 26.264 0 1 1 52.5 0z" color="#000000"/>
      <path transform="matrix(-.23093 0 0 .2309 1469.8 392.28)" d="m966.72 436.17a13.135 99.018 0 1 1 -26.27 0 13.135 99.018 0 1 1 26.27 0z" color="#000000"/>
      <path transform="matrix(-.15791 0 0 .16022 1389.1 423.11)" d="m966.72 436.17a13.135 99.018 0 1 1 -26.27 0 13.135 99.018 0 1 1 26.27 0z" color="#000000"/>
      <path transform="matrix(-.087332 0 0 .091889 1311.2 452.92)" d="m966.72 436.17a13.135 99.018 0 1 1 -26.27 0 13.135 99.018 0 1 1 26.27 0z" color="#000000"/>
      <path transform="matrix(.0023889 -.23089 -.23092 -.0023886 1316.3 745.66)" d="m966.72 436.17a13.135 99.018 0 1 1 -26.27 0 13.135 99.018 0 1 1 26.27 0z" color="#000000"/>
      <path transform="matrix(.0016336 -.15788 -.16023 -.0016574 1286.3 664.65)" d="m966.72 436.17a13.135 99.018 0 1 1 -26.27 0 13.135 99.018 0 1 1 26.27 0z" color="#000000"/>
      <path transform="matrix(.00090342 -.087316 -.091895 -.00095057 1257.3 586.42)" d="m966.72 436.17a13.135 99.018 0 1 1 -26.27 0 13.135 99.018 0 1 1 26.27 0z" color="#000000"/>
      <path transform="matrix(-.0023889 .23089 .23092 .0023886 1120 240.33)" d="m966.72 436.17a13.135 99.018 0 1 1 -26.27 0 13.135 99.018 0 1 1 26.27 0z" color="#000000"/>
      <path transform="matrix(-.0016336 .15788 .16023 .0016574 1150 321.34)" d="m966.72 436.17a13.135 99.018 0 1 1 -26.27 0 13.135 99.018 0 1 1 26.27 0z" color="#000000"/>
      <path transform="matrix(-.00090342 .087316 .091895 .00095057 1179 399.57)" d="m966.72 436.17a13.135 99.018 0 1 1 -26.27 0 13.135 99.018 0 1 1 26.27 0z" color="#000000"/>
     </g>
     <path d="m123.31 484.03a0.77493 6.6656 19.416 1 1 -1.4445 -0.56408 0.77493 6.6656 19.416 1 1 1.4445 0.56408z" color="#000000"/>
     <path d="m126.68 485.35a0.42856 3.8229 19.418 1 1 -0.79885 -0.31195 0.42856 3.8229 19.418 1 1 0.79885 0.31195z" color="#000000"/>
     <path d="m131.25 487.14a1.3916 1.5712 12.469 1 1 -2.5979 -1.0145 1.3916 1.5712 12.469 1 1 2.5979 1.0145z" color="#000000"/>
     <path d="m139.85 490.49a1.1332 9.6063 19.415 1 0 2.1124 0.82487 1.1332 9.6063 19.415 0 0 -2.1124 -0.82487z" color="#000000"/>
     <path d="m136.32 489.11a0.77493 6.6656 19.416 1 0 1.4445 0.56407 0.77493 6.6656 19.416 1 0 -1.4445 -0.56407z" color="#000000"/>
     <path d="m132.95 487.8a0.42857 3.823 19.418 1 0 0.79887 0.31195 0.42857 3.823 19.418 1 0 -0.79887 -0.31195z" color="#000000"/>
     <path d="m125.88 497.84a8.5511 1.2731 22.042 1 0 -0.87012 2.3947 8.5511 1.2731 22.042 1 0 0.87012 -2.3947z" color="#000000"/>
     <path d="m127.33 493.85a5.9334 0.87055 22.041 1 0 -0.59502 1.6375 5.9334 0.87055 22.041 1 0 0.59502 -1.6375z" color="#000000"/>
     <path d="m128.72 490.02a3.403 0.48145 22.037 1 0 -0.32905 0.90558 3.403 0.48145 22.037 1 0 0.32905 -0.90558z" color="#000000"/>
     <path d="m134.03 475.41a8.5511 1.2731 22.042 1 0 0.87012 -2.3947 8.5511 1.2731 22.042 1 0 -0.87012 2.3947z" color="#000000"/>
     <path d="m132.58 479.4a5.9334 0.87055 22.041 1 0 0.59501 -1.6375 5.9334 0.87055 22.041 1 0 -0.59501 1.6375z" color="#000000"/>
     <path d="m131.19 483.23a3.403 0.48145 22.037 1 0 0.32905 -0.90558 3.403 0.48145 22.037 1 0 -0.32905 0.90558z" color="#000000"/>
     <path d="m319.93 450a9.058 1.2018 74.027 1 1 -2.3108 0.66139 9.058 1.2018 74.027 1 1 2.3108 -0.66139z" color="#000000"/>
     <path d="m323.78 448.9a6.2855 0.8218 74.027 1 1 -1.5801 0.45227 6.2855 0.8218 74.027 1 1 1.5801 -0.45227z" color="#000000"/>
     <path d="m327.47 447.84a3.6049 0.45449 74.027 1 1 -0.87388 0.25012 3.6049 0.45449 74.027 1 1 0.87388 -0.25012z" color="#000000"/>
     <path d="m332.47 446.42a1.4786 1.4788 72.812 1 1 -2.8419 0.81346 1.4786 1.4788 72.812 1 1 2.8419 -0.81346z" color="#000000"/>
     <path d="m334.33 445.88a3.6049 0.45449 74.027 1 0 0.87388 -0.25011 3.6049 0.45449 74.027 1 0 -0.87388 0.25011z" color="#000000"/>
     <path d="m335.22 457.35c-0.3939 0.10055-0.77102 0.20115-1.1817 0.31847-4.8189 1.3241-8.5818 2.9165-8.4058 3.5618 0.176 0.63693 4.2155 0.0921 9.0344-1.232 0.19275-0.0503 0.36037-0.10895 0.55312-0.15922v-2.4891z" color="#000000"/>
     <path d="m335.22 453.27c-0.70398 0.15086-1.4582 0.32686-2.2544 0.54476-3.3439 0.92187-5.9587 2.003-5.8413 2.4388 0.11737 0.43579 2.9416 0.0586 6.2855-0.86322 0.65369-0.18437 1.232-0.36875 1.8102-0.55312v-1.5672z" color="#000000"/>
     <path d="m331.95 450.1a0.45443 3.6053 74.62 1 0 0.24106 0.8763 0.45443 3.6053 74.62 1 0 -0.24106 -0.8763z" color="#000000"/>
     <path d="m334.8 432.16c-1.6594 0.12579-4.3496 0.63693-7.3582 1.4666-4.8273 1.3241-8.6153 2.9249-8.4394 3.5618 0.176 0.63693 4.2406 0.0921 9.0595-1.232 3.059-0.83807 5.6821-1.7935 7.1571-2.5393v-1.2571c-0.14247 0-0.2598-0.0168-0.41904 0z" color="#000000"/>
     <path d="m329.13 439.82a0.8217 6.2862 74.62 1 0 -0.43584 -1.5845 0.8217 6.2862 74.62 1 0 0.43584 1.5845z" color="#000000"/>
     <path d="m330.14 443.52a0.45443 3.6053 74.62 1 0 -0.24106 -0.8763 0.45443 3.6053 74.62 1 0 0.24106 0.8763z" color="#000000"/>
     <g transform="translate(0 9.1924)">
      <path d="m312.4 492.15a9.058 1.2018 74.027 1 1 -2.3108 0.6614 9.058 1.2018 74.027 1 1 2.3108 -0.6614z" color="#000000"/>
      <path d="m316.25 491.04a6.2855 0.8218 74.027 1 1 -1.5801 0.45227 6.2855 0.8218 74.027 1 1 1.5801 -0.45227z" color="#000000"/>
      <path d="m319.94 489.99a3.6049 0.45449 74.027 1 1 -0.87388 0.25011 3.6049 0.45449 74.027 1 1 0.87388 -0.25011z" color="#000000"/>
      <path d="m324.94 488.56a1.4786 1.4788 72.812 1 1 -2.8419 0.81345 1.4786 1.4788 72.812 1 1 2.8419 -0.81345z" color="#000000"/>
      <path d="m333.01 476.84c-0.63693 0.18437-0.0419 4.2322 1.3325 9.0344 0.28494 0.98893 0.57826 1.9024 0.87159 2.7824v-7.8359c-0.93025-2.4891-1.7851-4.0982-2.2041-3.9808z" color="#000000"/>
      <path d="m330.49 486.97a6.2855 0.8218 74.027 0 0 1.5801 -0.45228 6.2855 0.8218 74.027 1 0 -1.5801 0.45228z" color="#000000"/>
      <path d="m326.79 488.02a3.6049 0.45449 74.027 1 0 0.87388 -0.25012 3.6049 0.45449 74.027 1 0 -0.87388 0.25012z" color="#000000"/>
      <path d="m334.74 498.32c-1.4415-0.0503-4.601 0.5196-8.2214 1.5169-1.9359 0.52798-3.6959 1.0811-5.1038 1.6258h8.0622c2.7991-0.88836 4.953-1.8018 5.7408-2.4136v-0.67884c-0.13405-0.0335-0.27657-0.0503-0.4777-0.0503z" color="#000000"/>
      <path d="m325.45 495.96a0.8217 6.2862 74.62 1 0 0.43584 1.5845 0.8217 6.2862 74.62 1 0 -0.43584 -1.5845z" color="#000000"/>
      <path d="m324.42 492.25a0.45443 3.6053 74.62 1 0 0.24106 0.87631 0.45443 3.6053 74.62 1 0 -0.24106 -0.87631z" color="#000000"/>
      <path d="m320.53 478.11a1.2016 9.0593 74.619 1 0 -0.63738 -2.3172 1.2016 9.0593 74.619 1 0 0.63738 2.3172z" color="#000000"/>
      <path d="m321.6 481.98a0.8217 6.2862 74.62 1 0 -0.43584 -1.5845 0.8217 6.2862 74.62 1 0 0.43584 1.5845z" color="#000000"/>
      <path d="m322.61 485.68a0.45443 3.6053 74.62 1 0 -0.24106 -0.8763 0.45443 3.6053 74.62 1 0 0.24106 0.8763z" color="#000000"/>
     </g>
     <g transform="matrix(.21681 -.33162 .33162 .21681 -152.97 811.66)">
      <path transform="matrix(.23093 0 0 .2309 965.71 392.28)" d="m966.72 436.17a13.135 99.018 0 1 1 -26.27 0 13.135 99.018 0 1 1 26.27 0z" color="#000000"/>
      <path transform="matrix(.15791 0 0 .16022 1046.4 423.11)" d="m966.72 436.17a13.135 99.018 0 1 1 -26.27 0 13.135 99.018 0 1 1 26.27 0z" color="#000000"/>
      <path transform="matrix(.087332 0 0 .091889 1124.4 452.92)" d="m966.72 436.17a13.135 99.018 0 1 1 -26.27 0 13.135 99.018 0 1 1 26.27 0z" color="#000000"/>
      <path transform="matrix(.14211 0 0 .14209 1060.2 429.61)" d="m1137.4 446.27a26.264 26.264 0 1 1 -52.5 0 26.264 26.264 0 1 1 52.5 0z" color="#000000"/>
      <path transform="matrix(-.23093 0 0 .2309 1469.8 392.28)" d="m966.72 436.17a13.135 99.018 0 1 1 -26.27 0 13.135 99.018 0 1 1 26.27 0z" color="#000000"/>
      <path transform="matrix(-.15791 0 0 .16022 1389.1 423.11)" d="m966.72 436.17a13.135 99.018 0 1 1 -26.27 0 13.135 99.018 0 1 1 26.27 0z" color="#000000"/>
      <path transform="matrix(-.087332 0 0 .091889 1311.2 452.92)" d="m966.72 436.17a13.135 99.018 0 1 1 -26.27 0 13.135 99.018 0 1 1 26.27 0z" color="#000000"/>
      <path transform="matrix(.0023889 -.23089 -.23092 -.0023886 1316.3 745.66)" d="m966.72 436.17a13.135 99.018 0 1 1 -26.27 0 13.135 99.018 0 1 1 26.27 0z" color="#000000"/>
      <path transform="matrix(.0016336 -.15788 -.16023 -.0016574 1286.3 664.65)" d="m966.72 436.17a13.135 99.018 0 1 1 -26.27 0 13.135 99.018 0 1 1 26.27 0z" color="#000000"/>
      <path transform="matrix(.00090342 -.087316 -.091895 -.00095057 1257.3 586.42)" d="m966.72 436.17a13.135 99.018 0 1 1 -26.27 0 13.135 99.018 0 1 1 26.27 0z" color="#000000"/>
      <path transform="matrix(-.0023889 .23089 .23092 .0023886 1120 240.33)" d="m966.72 436.17a13.135 99.018 0 1 1 -26.27 0 13.135 99.018 0 1 1 26.27 0z" color="#000000"/>
      <path transform="matrix(-.0016336 .15788 .16023 .0016574 1150 321.34)" d="m966.72 436.17a13.135 99.018 0 1 1 -26.27 0 13.135 99.018 0 1 1 26.27 0z" color="#000000"/>
      <path transform="matrix(-.00090342 .087316 .091895 .00095057 1179 399.57)" d="m966.72 436.17a13.135 99.018 0 1 1 -26.27 0 13.135 99.018 0 1 1 26.27 0z" color="#000000"/>
     </g>
     <g transform="matrix(.11408 -.37942 .37942 .11408 -95.985 940.7)">
      <path transform="matrix(.23093 0 0 .2309 965.71 392.28)" d="m966.72 436.17a13.135 99.018 0 1 1 -26.27 0 13.135 99.018 0 1 1 26.27 0z" color="#000000"/>
      <path transform="matrix(.15791 0 0 .16022 1046.4 423.11)" d="m966.72 436.17a13.135 99.018 0 1 1 -26.27 0 13.135 99.018 0 1 1 26.27 0z" color="#000000"/>
      <path transform="matrix(.087332 0 0 .091889 1124.4 452.92)" d="m966.72 436.17a13.135 99.018 0 1 1 -26.27 0 13.135 99.018 0 1 1 26.27 0z" color="#000000"/>
      <path transform="matrix(.14211 0 0 .14209 1060.2 429.61)" d="m1137.4 446.27a26.264 26.264 0 1 1 -52.5 0 26.264 26.264 0 1 1 52.5 0z" color="#000000"/>
      <path transform="matrix(-.23093 0 0 .2309 1469.8 392.28)" d="m966.72 436.17a13.135 99.018 0 1 1 -26.27 0 13.135 99.018 0 1 1 26.27 0z" color="#000000"/>
      <path transform="matrix(-.15791 0 0 .16022 1389.1 423.11)" d="m966.72 436.17a13.135 99.018 0 1 1 -26.27 0 13.135 99.018 0 1 1 26.27 0z" color="#000000"/>
      <path transform="matrix(-.087332 0 0 .091889 1311.2 452.92)" d="m966.72 436.17a13.135 99.018 0 1 1 -26.27 0 13.135 99.018 0 1 1 26.27 0z" color="#000000"/>
      <path transform="matrix(.0023889 -.23089 -.23092 -.0023886 1316.3 745.66)" d="m966.72 436.17a13.135 99.018 0 1 1 -26.27 0 13.135 99.018 0 1 1 26.27 0z" color="#000000"/>
      <path transform="matrix(.0016336 -.15788 -.16023 -.0016574 1286.3 664.65)" d="m966.72 436.17a13.135 99.018 0 1 1 -26.27 0 13.135 99.018 0 1 1 26.27 0z" color="#000000"/>
      <path transform="matrix(.00090342 -.087316 -.091895 -.00095057 1257.3 586.42)" d="m966.72 436.17a13.135 99.018 0 1 1 -26.27 0 13.135 99.018 0 1 1 26.27 0z" color="#000000"/>
      <path transform="matrix(-.0023889 .23089 .23092 .0023886 1120 240.33)" d="m966.72 436.17a13.135 99.018 0 1 1 -26.27 0 13.135 99.018 0 1 1 26.27 0z" color="#000000"/>
      <path transform="matrix(-.0016336 .15788 .16023 .0016574 1150 321.34)" d="m966.72 436.17a13.135 99.018 0 1 1 -26.27 0 13.135 99.018 0 1 1 26.27 0z" color="#000000"/>
      <path transform="matrix(-.00090342 .087316 .091895 .00095057 1179 399.57)" d="m966.72 436.17a13.135 99.018 0 1 1 -26.27 0 13.135 99.018 0 1 1 26.27 0z" color="#000000"/>
     </g>
     <g transform="matrix(.11408 -.37942 .37942 .11408 -11.84 945.3)">
      <path transform="matrix(.23093 0 0 .2309 965.71 392.28)" d="m966.72 436.17a13.135 99.018 0 1 1 -26.27 0 13.135 99.018 0 1 1 26.27 0z" color="#000000"/>
      <path transform="matrix(.15791 0 0 .16022 1046.4 423.11)" d="m966.72 436.17a13.135 99.018 0 1 1 -26.27 0 13.135 99.018 0 1 1 26.27 0z" color="#000000"/>
      <path transform="matrix(.087332 0 0 .091889 1124.4 452.92)" d="m966.72 436.17a13.135 99.018 0 1 1 -26.27 0 13.135 99.018 0 1 1 26.27 0z" color="#000000"/>
      <path transform="matrix(.14211 0 0 .14209 1060.2 429.61)" d="m1137.4 446.27a26.264 26.264 0 1 1 -52.5 0 26.264 26.264 0 1 1 52.5 0z" color="#000000"/>
      <path transform="matrix(-.23093 0 0 .2309 1469.8 392.28)" d="m966.72 436.17a13.135 99.018 0 1 1 -26.27 0 13.135 99.018 0 1 1 26.27 0z" color="#000000"/>
      <path transform="matrix(-.15791 0 0 .16022 1389.1 423.11)" d="m966.72 436.17a13.135 99.018 0 1 1 -26.27 0 13.135 99.018 0 1 1 26.27 0z" color="#000000"/>
      <path transform="matrix(-.087332 0 0 .091889 1311.2 452.92)" d="m966.72 436.17a13.135 99.018 0 1 1 -26.27 0 13.135 99.018 0 1 1 26.27 0z" color="#000000"/>
      <path transform="matrix(.0023889 -.23089 -.23092 -.0023886 1316.3 745.66)" d="m966.72 436.17a13.135 99.018 0 1 1 -26.27 0 13.135 99.018 0 1 1 26.27 0z" color="#000000"/>
      <path transform="matrix(.0016336 -.15788 -.16023 -.0016574 1286.3 664.65)" d="m966.72 436.17a13.135 99.018 0 1 1 -26.27 0 13.135 99.018 0 1 1 26.27 0z" color="#000000"/>
      <path transform="matrix(.00090342 -.087316 -.091895 -.00095057 1257.3 586.42)" d="m966.72 436.17a13.135 99.018 0 1 1 -26.27 0 13.135 99.018 0 1 1 26.27 0z" color="#000000"/>
      <path transform="matrix(-.0023889 .23089 .23092 .0023886 1120 240.33)" d="m966.72 436.17a13.135 99.018 0 1 1 -26.27 0 13.135 99.018 0 1 1 26.27 0z" color="#000000"/>
      <path transform="matrix(-.0016336 .15788 .16023 .0016574 1150 321.34)" d="m966.72 436.17a13.135 99.018 0 1 1 -26.27 0 13.135 99.018 0 1 1 26.27 0z" color="#000000"/>
      <path transform="matrix(-.00090342 .087316 .091895 .00095057 1179 399.57)" d="m966.72 436.17a13.135 99.018 0 1 1 -26.27 0 13.135 99.018 0 1 1 26.27 0z" color="#000000"/>
     </g>
     <g transform="matrix(.21681 -.33162 .33162 .21681 -288.47 828.16)">
      <path transform="matrix(.23093 0 0 .2309 965.71 392.28)" d="m966.72 436.17a13.135 99.018 0 1 1 -26.27 0 13.135 99.018 0 1 1 26.27 0z" color="#000000"/>
      <path transform="matrix(.15791 0 0 .16022 1046.4 423.11)" d="m966.72 436.17a13.135 99.018 0 1 1 -26.27 0 13.135 99.018 0 1 1 26.27 0z" color="#000000"/>
      <path transform="matrix(.087332 0 0 .091889 1124.4 452.92)" d="m966.72 436.17a13.135 99.018 0 1 1 -26.27 0 13.135 99.018 0 1 1 26.27 0z" color="#000000"/>
      <path transform="matrix(.14211 0 0 .14209 1060.2 429.61)" d="m1137.4 446.27a26.264 26.264 0 1 1 -52.5 0 26.264 26.264 0 1 1 52.5 0z" color="#000000"/>
      <path transform="matrix(-.23093 0 0 .2309 1469.8 392.28)" d="m966.72 436.17a13.135 99.018 0 1 1 -26.27 0 13.135 99.018 0 1 1 26.27 0z" color="#000000"/>
      <path transform="matrix(-.15791 0 0 .16022 1389.1 423.11)" d="m966.72 436.17a13.135 99.018 0 1 1 -26.27 0 13.135 99.018 0 1 1 26.27 0z" color="#000000"/>
      <path transform="matrix(-.087332 0 0 .091889 1311.2 452.92)" d="m966.72 436.17a13.135 99.018 0 1 1 -26.27 0 13.135 99.018 0 1 1 26.27 0z" color="#000000"/>
      <path transform="matrix(.0023889 -.23089 -.23092 -.0023886 1316.3 745.66)" d="m966.72 436.17a13.135 99.018 0 1 1 -26.27 0 13.135 99.018 0 1 1 26.27 0z" color="#000000"/>
      <path transform="matrix(.0016336 -.15788 -.16023 -.0016574 1286.3 664.65)" d="m966.72 436.17a13.135 99.018 0 1 1 -26.27 0 13.135 99.018 0 1 1 26.27 0z" color="#000000"/>
      <path transform="matrix(.00090342 -.087316 -.091895 -.00095057 1257.3 586.42)" d="m966.72 436.17a13.135 99.018 0 1 1 -26.27 0 13.135 99.018 0 1 1 26.27 0z" color="#000000"/>
      <path transform="matrix(-.0023889 .23089 .23092 .0023886 1120 240.33)" d="m966.72 436.17a13.135 99.018 0 1 1 -26.27 0 13.135 99.018 0 1 1 26.27 0z" color="#000000"/>
      <path transform="matrix(-.0016336 .15788 .16023 .0016574 1150 321.34)" d="m966.72 436.17a13.135 99.018 0 1 1 -26.27 0 13.135 99.018 0 1 1 26.27 0z" color="#000000"/>
      <path transform="matrix(-.00090342 .087316 .091895 .00095057 1179 399.57)" d="m966.72 436.17a13.135 99.018 0 1 1 -26.27 0 13.135 99.018 0 1 1 26.27 0z" color="#000000"/>
     </g>
     <path d="m266.56 536.72c-3.3468 0.13376-5.7398 0.60205-5.4379 1.0642 0.30191 0.46212 3.2669 0.86926 6.7376 0.92521 2.2486 0.0967 4.8281 0.0458 6.766-0.1335 1.9379-0.17927 3.1893-0.48275 3.2824-0.79602s-0.97418-0.62909-2.7995-0.82837c-1.8254-0.19928-4.3665-0.27742-6.6653-0.20496-0.6164-0.0191-1.2505-0.028-1.8833-0.0265zm-11.591 0.3183c-0.49811 0.23961-0.93507 3.6139-0.9549 7.3739 0.10094 3.2389 0.50925 5.7825 0.95022 5.9196 0.44097 0.13706 0.87609-2.1444 1.0126-5.3095 0.0212-4.0951-0.46442-7.9417-1.008-7.984zm3.5544 3.4482c-0.33617 0.22562-0.62564 2.5655-0.6366 5.1458-0.0756 1.5723-0.0469 3.4149 0.0747 4.8067 0.12166 1.3918 0.33327 2.2978 0.55201 2.3634s0.43913-0.71075 0.5749-2.0253c0.13578-1.3146 0.18353-3.1342 0.12458-4.7469 0.0148-2.8438-0.31767-5.5161-0.68964-5.5437zm7.48 0.1061c-2.4955 0.0509-4.5218 0.36199-4.5091 0.69224s2.0628 0.63899 4.5622 0.68706c2.395-0.0312 4.4842-0.29945 4.7661-0.61195 0.28187-0.31251-1.2725-0.63725-3.546-0.74082-0.0776-9e-3 -0.1572-0.018-0.23873-0.0265-0.34376-4e-3 -0.69075-4e-3 -1.0345 0zm9.1511 2.7321c-0.48894 0.33218-0.90986 3.6754-0.92838 7.3739 0.0617 1.4698 0.18362 2.7921 0.34483 3.74h1.3262c0.12039-0.86018 0.21232-1.945 0.26525-3.1299 0.0212-4.03-0.44686-7.8376-0.98143-7.984-9e-3 8.7e-4 -0.0177 8.7e-4 -0.0265 0zm-13.209 0.50397c-0.16447 0.11344-0.31189 1.1568-0.34483 2.4403 0.02 1.3443 0.16527 2.5057 0.33455 2.6749 0.16927 0.16927 0.34648-0.66966 0.40815-1.9322 9e-3 -1.6762-0.18653-3.2385-0.39787-3.183zm3.183 0.50398c-1.263 0.0625-2.0946 0.24093-1.9129 0.4105 0.18168 0.16957 1.3592 0.31398 2.7086 0.3322 1.3048-0.033 2.36-0.18458 2.4497-0.35199s-0.79408-0.3357-2.0518-0.39071c-0.3928-0.01-0.80092-0.01-1.1936 0zm6.4986 0.2122c-0.33617 0.22565-0.62563 2.5655-0.63659 5.1458-0.0794 1.531-0.0591 3.3431 0.053 4.748h1.1671c0.1142-1.2454 0.15393-2.8742 0.1061-4.3501 0.0148-2.8438-0.31767-5.5162-0.68965-5.5437zm-3.3952 1.2201c-0.17353 0.0236-0.3361 1.0919-0.37135 2.4403-6e-3 1.4201 0.13026 2.7932 0.30543 3.0872 0.17518 0.29405 0.36966-0.52457 0.43727-1.8406-7e-4 -0.106-7e-4 -0.21229 0-0.3183 0.0215-1.6653-0.16048-3.3163-0.37135-3.3687zm-3.2626 0.8488c-0.58905 0.0374-1.1128 0.54417-1.1697 1.1317-0.0569 0.58758 0.35999 1.1854 0.93094 1.3351 0.6318 0.19433 1.3834-0.2037 1.5778-0.83556 0.19442-0.63185-0.20342-1.3837-0.83515-1.5782-0.16208-0.0516-0.33471-0.0697-0.50397-0.053zm-1.9363 4.244c-1.2596 0.0524-2.1607 0.21808-2.095 0.38515 0.0656 0.16707 1.0922 0.32085 2.3868 0.35755 1.4146 4e-3 2.7723-0.13254 3.0592-0.30719 0.28692-0.17464-0.52933-0.36794-1.8391-0.43551-0.0972 5.8e-4 -0.19459 5.8e-4 -0.29178 0-0.4013-0.0103-0.81897-0.0103-1.2202 0z" color="#000000"/>
    </g>
    <path transform="matrix(.99998 .0062478 -.0062478 .99998 26.289 -6.8455)" d="m309.31 417.38c-0.8527 3e-3 -1.7054 0.26404-2.5625 0.53125-2.7428 0.85506-5.6995 2.1452-7.7812 1.2812l-0.0312-0.0312h-0.0625c-3.8256-1.1655-7.862-1.7984-11.906-1.6875-20.329 0.64221-36.436 15.364-49.281 29.188-17.919 20.275-32.548 43.202-46.031 66.5-8.5446 15.3-17.509 30.614-26.156 45.938h1.2188c8.5479-15.14 17.392-30.303 25.844-45.438 13.468-23.271 28.06-46.119 45.906-66.312 12.799-13.774 28.696-28.186 48.531-28.812 3.9138-0.10733 7.8329 0.48877 11.562 1.625 3.3471 1.389 7.4917-1.3629 10.312-1.6562 1.6925-0.17601 2.9061 0.52413 3.1875 3.5625 4.9299 42.348 8.7126 93.592 9.2812 137.03h1.0625c-0.56-43.48-4.37-94.71-9.31-137.09-1e-3 -0.012 1e-3 -0.0195 0-0.0312-0.10317-1.084-0.28598-1.9724-0.65625-2.6875-0.37432-0.72299-0.92782-1.3035-1.5938-1.5938-0.49944-0.21771-1.0196-0.31436-1.5312-0.3125z" color="#000000" style="block-progression:tb;text-indent:0;text-transform:none"/>
    <path transform="matrix(.5933 .0037069 -.0037069 .5933 105.97 79.157)" d="m385.84 559.41c-0.22103 5e-3 -0.44093 0.0401-0.65625 0.0625-2.8647 0.29791-5.7739 1.6615-8.6875 2.5625s-5.6217 1.3467-7.8125 0.4375l-0.0937-0.0625h-0.0625c-6.444-1.9632-13.243-3.0933-20.062-2.9062-34.265 1.0824-61.413 25.92-83.062 49.219v0.0312c-30.202 34.173-54.869 72.764-77.594 112.03h-0.0312c-14.236 25.49-29.145 51.001-43.562 76.531l-1.53 2.69h265.5v-1.7812c-0.95728-73.286-7.3108-159.63-15.625-231.06-2e-3 -0.0194 1e-3 -0.0433 0-0.0625-0.26173-2.752-0.94409-4.749-2.3125-6.0938-1.2057-1.1849-2.8591-1.6278-4.4062-1.5938zm0.59375 1.8125c2.309 0.10723 3.9288 1.6128 4.3438 6.0938 8.3101 71.384 14.669 157.69 15.625 230.91h-260.66c14.408-25.513 29.346-51.019 43.594-76.531 22.699-39.222 47.295-77.746 77.375-111.78 21.572-23.215 48.382-47.538 81.812-48.594 6.5966-0.1809 13.183 0.86618 19.469 2.7812 5.6413 2.3412 12.652-2.3493 17.406-2.8438 0.35658-0.0371 0.70139-0.0466 1.0312-0.0312z" color="#000000" style="block-progression:tb;text-indent:0;text-transform:none"/>
    <path d="m151.5 374.44c-14.798 15.86-24.442 40.714-26.704 53.971 34.43 9.2831 48.805 33.836 70.517 51.99 5.0318-8.7205 9.9844-18.641 15.056-28.939-19.374-22.984-33.004-70.433-58.868-77.022z" fill-rule="evenodd" stroke="#000" stroke-width="1px"/>
    <path transform="matrix(.99998 .0062478 -.0062478 .99998 26.289 -6.8455)" d="m270.81 365.97c-62.034-0.76212-85.484 104.83-114.62 142.41l-32.938 50.719h43.281l29.281-51.375c28.85-46.94 71.86-112.52 116.38-80.72 1.0945-9.594-9.2742-48.166-16.719-55.594-8.8653-3.6238-17.038-5.3439-24.656-5.4375z" fill-rule="evenodd" stroke="#000" stroke-width="2.1152"/>
   </g>
   <path transform="matrix(.94127 -.33765 .33765 .94127 -99.45 82.596)" d="m263.88 351.41c-0.033-9e-3 -0.0637 3e-3 -0.0937 0.0312-0.2413 0.22484-0.40965 0.61722-0.40625 1.1562 7e-3 1.0778 0.7925 2.7146 1.3438 4.2188 0.5188-0.84349 1.3505-1.7035 1.3438-2.7812-3e-3 -0.53902-0.15992-1.1112-0.40625-1.5938-0.12317-0.24131-0.24466-0.16421-0.40625-0.0625-0.16158 0.10135-0.40911-0.46495-0.59375-0.5625-0.18466-0.0972-0.30796 0.27173-0.46875 0-0.12083-0.20415-0.21353-0.3793-0.3125-0.40625zm-2.5312 2.0312c-0.0644 0.0453 0.0152 0.22731 0.0937 0.4375 0.10452 0.27996-0.39284 0.061-0.46875 0.1875-0.0759 0.1265 0.26842 0.59037 0.0312 0.53125-0.23757-0.0592-0.4243-0.0859-0.3125 0.15625 0.22337 0.48471 0.63174 1.0153 1.125 1.5 0.98625 0.96913 2.3817 1.5282 3.7188 2.25-0.80993-1.3686-1.67-3.1246-2.6562-4.0938-0.49327-0.48472-0.98233-0.81808-1.4062-0.96875-0.053-0.0189-0.1036-0.0151-0.125 0zm-33.219 0.84375c-0.0328 8e-3 -0.0638 0.0495-0.0937 0.0937-0.24047 0.35505-0.40965 0.83597-0.40625 1.375 7e-3 1.0777 0.79431 2.2866 1.3438 3.5 0.51704-1.1247 1.3505-2.4223 1.3438-3.5-3e-3 -0.53902-0.12949-1.023-0.375-1.375-0.12276-0.17601-0.27648-0.0324-0.4375 0.15625-0.16106 0.18837-0.40972-0.25113-0.59375-0.25-0.18404 1e-3 -0.3085 0.43637-0.46875 0.25-0.12041-0.14008-0.21386-0.27606-0.3125-0.25zm40.031 1.2812c-0.78076-1e-3 -1.5059 0.33975-2.3125 0.5 1.2128 0.91696 2.631 2.2294 3.6875 2.5625 0.52841 0.16681 0.98738 0.15556 1.2812 0 0.14694-0.0778-0.0309-0.26545-0.25-0.5-0.2188-0.23445 0.16481-0.36221 0.125-0.5625-0.0399-0.20031-0.49298-0.47852-0.34375-0.59375 0.14939-0.11548 0.26202-0.21988 0.0625-0.40625-0.39911-0.37341-0.94035-0.7084-1.4688-0.875-0.26412-0.0833-0.52098-0.12468-0.78125-0.125zm-34.562 0.25c-0.12798 0.01-0.27459 2e-3 -0.40625 0.0312-1.053 0.2326-2.0219 1.2711-3.0938 2.0625 1.2087 0.26939 2.6345 0.79511 3.6875 0.5625 0.52664-0.11633 0.98837-0.34251 1.2812-0.65625 0.14647-0.15687-0.0317-0.28846-0.25-0.40625-0.21807-0.11785 0.16472-0.4454 0.125-0.625-0.0397-0.1796-0.49248-0.17931-0.34375-0.375 0.14884-0.19607 0.23007-0.38879 0.0312-0.46875-0.29832-0.1205-0.64728-0.15508-1.0312-0.125zm-7.5 1.7812c-0.11458 1e-3 -0.23814 0.0123-0.34375 0.0312-0.21122 0.0381-0.13571 0.21256-0.0312 0.4375 0.10418 0.22482-0.3931 0.26985-0.46875 0.4375-0.0756 0.16766 0.26762 0.46337 0.0312 0.53125-0.23676 0.0681-0.42394 0.12954-0.3125 0.3125 0.22263 0.36648 0.60212 0.71581 1.0938 0.9375 0.98296 0.44322 2.3861 0.21188 3.7188 0.21875-0.80724-0.9386-1.6108-2.213-2.5938-2.6562-0.3687-0.16615-0.74998-0.25368-1.0938-0.25zm41.312 0.15625c-0.0687 1.1951-0.3719 2.5689 0.0312 3.7812 0.20164 0.60635 0.51621 1.134 0.875 1.5625 0.1794 0.21426 0.26294 0.0656 0.34375-0.125 0.0809-0.19023 0.45364 0.35167 0.625 0.375 0.17137 0.0233 0.12552-0.44968 0.34375-0.21875 0.21862 0.23172 0.39092 0.40231 0.4375 0.21875 0.0937-0.36694 0.0766-0.89365-0.125-1.5-0.40317-1.2124-1.5716-2.6563-2.5312-4.0938zm-3.5312 0.75c-0.11939 0.0151-0.24549 0.054-0.34375 0.0937-0.39318 0.15892-0.62866 0.44249-0.71875 0.8125-0.045 0.18502 0.15752 0.31564 0.40625 0.4375 0.24852 0.12198 0.0919 0.51772 0.21875 0.71875 0.12688 0.20104 0.52696 0.20851 0.5 0.4375-0.027 0.22946-0.0249 0.41992 0.1875 0.5 0.42515 0.16101 0.88809 0.19022 1.2812 0.0312 0.78612-0.31774 1.111-1.4869 1.625-2.4375-1.0318-0.21161-2.3205-0.69908-3.1562-0.59375zm-32.219 0.25c-0.0685 1.2358-0.37058 2.7811 0.0312 3.7812 0.20098 0.50022 0.5174 0.85629 0.875 1.0938 0.1788 0.11874 0.26322-0.0779 0.34375-0.3125 0.0808-0.23422 0.48546 0.0999 0.65625 0.0312 0.17078-0.0686 0.095-0.52088 0.3125-0.40625 0.2179 0.11482 0.42235 0.20914 0.46875 0 0.0934-0.41847 0.0447-0.9373-0.15625-1.4375-0.40183-1.0001-1.5748-1.8226-2.5312-2.75zm-0.375 1.5312c-1.1753 0.39004-2.654 0.63443-3.4375 1.375-0.39186 0.37038-0.66022 0.86165-0.75 1.2812-0.0449 0.21009 0.15834 0.16783 0.40625 0.15625 0.24772-0.0106 0.0923 0.46011 0.21875 0.59375s0.52688-0.0881 0.5 0.15625c-0.0269 0.24469-0.0554 0.47102 0.15625 0.4375 0.42376-0.0668 0.88941-0.28586 1.2812-0.65625 0.78348-0.74057 1.1128-2.1142 1.625-3.3438zm14.5 0.71875c-0.0313 9e-3 -0.0325 0.0493-0.0625 0.0937-0.24049 0.35505-0.40965 0.83597-0.40625 1.375 7e-3 1.0777 0.76308 2.2866 1.3125 3.5 0.51704-1.1247 1.3817-2.4535 1.375-3.5312-3e-3 -0.53902-0.12949-1.023-0.375-1.375-0.12276-0.176-0.27647-1e-3 -0.4375 0.1875-0.16106 0.18837-0.44097-0.25113-0.625-0.25-0.18404 1e-3 -0.27725 0.43637-0.4375 0.25-0.12043-0.14004-0.24996-0.27557-0.34375-0.25zm36.25 1.0938c-0.0331-3e-3 -0.0637-2e-3 -0.0937 0.0312-0.24104 0.2639-0.37838 0.67973-0.375 1.2188 7e-3 1.0777 0.79304 2.5519 1.3438 3.9688 0.51827-0.92786 1.3192-1.9223 1.3125-3-3e-3 -0.53903-0.12892-1.0566-0.375-1.5-0.12304-0.22151-0.27609-0.15905-0.4375-0.0312-0.16142 0.12746-0.40929-0.4008-0.59375-0.46875-0.18437-0.0683-0.27687 0.37117-0.4375 0.125-0.12071-0.18487-0.24488-0.3327-0.34375-0.34375zm-30.75 0.4375c-0.12798 0.01-0.27459 0.0334-0.40625 0.0625-1.053 0.2326-2.0531 1.2086-3.125 2 1.2087 0.2694 2.6345 0.85762 3.6875 0.625 0.52664-0.11633 0.98836-0.405 1.2812-0.71875 0.14647-0.15687-0.0317-0.22596-0.25-0.34375-0.21807-0.11785 0.16472-0.47665 0.125-0.65625-0.0397-0.1796-0.49249-0.17929-0.34375-0.375 0.14884-0.19607 0.26132-0.35754 0.0625-0.4375-0.29832-0.1205-0.6473-0.18628-1.0312-0.15625zm-7.5312 1.75c-0.11458 1e-3 -0.23814 0.0123-0.34375 0.0312-0.21122 0.0381-0.13575 0.24379-0.0312 0.46875 0.10418 0.22483-0.3931 0.26985-0.46875 0.4375-0.0757 0.16767 0.26762 0.43212 0.0312 0.5-0.23676 0.0681-0.39269 0.12955-0.28125 0.3125 0.22263 0.36648 0.60212 0.71582 1.0938 0.9375 0.98296 0.44322 2.3861 0.27437 3.7188 0.28125-0.80724-0.9386-1.642-2.2755-2.625-2.7188-0.3687-0.16615-0.74998-0.25368-1.0938-0.25zm35.781 0.1875c-0.0711 0.0555-0.016 0.23976 0.0625 0.4375 0.10442 0.26339-0.39292 0.11116-0.46875 0.25-0.0758 0.13884 0.26818 0.55227 0.0312 0.53125-0.2373-0.0211-0.39294-5e-3 -0.28125 0.21875 0.22315 0.44923 0.60098 0.93796 1.0938 1.3438 0.98526 0.81136 2.383 1.1177 3.7188 1.625-0.80913-1.2396-1.6398-2.8449-2.625-3.6562-0.49278-0.40581-0.98276-0.66744-1.4062-0.75-0.0529-0.0105-0.10132-0.0185-0.125 0zm-30.219 1c-0.0685 1.2358-0.37058 2.7499 0.0312 3.75 0.20098 0.50022 0.5174 0.91879 0.875 1.1562 0.1788 0.11874 0.2632-0.0779 0.34375-0.3125 0.0808-0.23421 0.48545 0.0998 0.65625 0.0312 0.17078-0.0686 0.095-0.52087 0.3125-0.40625 0.21789 0.11481 0.42237 0.17778 0.46875-0.0312 0.0934-0.41847 0.0447-0.90604-0.15625-1.4062-0.40183-1.0001-1.5748-1.8539-2.5312-2.7812zm37.406 0.0625c-0.91527 0.0157-1.7787 0.50513-2.7188 0.84375 1.2115 0.72268 2.6633 1.8054 3.7188 1.9688 0.52787 0.0817 0.95642 0.0155 1.25-0.1875 0.1468-0.10149 3e-4 -0.2692-0.21875-0.46875-0.21858-0.19947 0.1648-0.39966 0.125-0.59375-0.0398-0.19411-0.49284-0.36062-0.34375-0.5 0.14922-0.13966 0.26178-0.28306 0.0625-0.4375-0.39871-0.30954-0.94086-0.51209-1.4688-0.59375-0.13194-0.0203-0.27549-0.0335-0.40625-0.0312zm-37.75 1.4375c-1.1753 0.39003-2.6853 0.69694-3.4688 1.4375-0.39185 0.37039-0.66022 0.79915-0.75 1.2188-0.0449 0.21009 0.15837 0.23028 0.40625 0.21875 0.24772-0.0106 0.0923 0.46012 0.21875 0.59375 0.12645 0.13364 0.52688-0.0881 0.5 0.15625-0.0269 0.2447-0.0554 0.43977 0.15625 0.40625 0.42377-0.0668 0.8894-0.28587 1.2812-0.65625 0.78347-0.74056 1.144-2.1455 1.6562-3.375zm-34.062 0.75c-0.0328 8e-3 -0.0638 0.0495-0.0937 0.0937-0.24048 0.35504-0.37836 0.83599-0.375 1.375 7e-3 1.0777 0.79433 2.2866 1.3438 3.5 0.51704-1.1247 1.3192-2.4223 1.3125-3.5-3e-3 -0.53902-0.12949-1.023-0.375-1.375-0.12276-0.17601-0.27647-0.0324-0.4375 0.15625-0.16106 0.18838-0.40972-0.25113-0.59375-0.25-0.18404 1e-3 -0.27725 0.43637-0.4375 0.25-0.12041-0.14008-0.24512-0.27607-0.34375-0.25zm70.656 0.125c-0.0687 1.2073-0.3402 2.6013 0.0625 3.75 0.20145 0.57451 0.51657 1.0976 0.875 1.4688 0.17922 0.18559 0.23179 0.0475 0.3125-0.15625 0.0805-0.20357 0.48494 0.25442 0.65625 0.25 0.17118-4e-3 0.12572-0.50855 0.34375-0.3125 0.2184 0.19637 0.39084 0.34787 0.4375 0.15625 0.0936-0.38239 0.0452-0.89423-0.15625-1.4688-0.40276-1.1487-1.5725-2.4031-2.5312-3.6875zm-2.25 1.2188c-0.62771-0.0257-1.2011 0.0278-1.5938 0.25-0.39278 0.22236-0.66 0.58387-0.75 0.96875-0.045 0.19244 0.15778 0.2618 0.40625 0.34375 0.24842 0.0817 0.12321 0.50669 0.25 0.6875 0.12675 0.18082 0.52693 0.11016 0.5 0.34375-0.0269 0.23404-0.0247 0.42278 0.1875 0.46875 0.42476 0.0927 0.88848 0.0349 1.2812-0.1875 0.78533-0.4446 1.1115-1.6845 1.625-2.7188-0.58904-0.0261-1.2785-0.13061-1.9062-0.15625zm-62.94 0.19c-0.12798 0.01-0.24335 0.0334-0.375 0.0625-1.053 0.23261-2.0531 1.2399-3.125 2.0312 1.2087 0.2694 2.6658 0.79511 3.7188 0.5625 0.52663-0.11634 0.95711-0.3425 1.25-0.65625 0.14647-0.15687-0.0315-0.2572-0.25-0.375-0.21807-0.11785 0.16472-0.44539 0.125-0.625-0.0397-0.17959-0.49249-0.21054-0.34375-0.40625 0.14884-0.19607 0.26132-0.35754 0.0625-0.4375-0.29832-0.1205-0.67854-0.18632-1.0625-0.15625zm10 0.4375c-0.18404 1e-3 -0.30849 0.43638-0.46875 0.25-0.16056-0.18672-0.28626-0.33395-0.40625-0.15625-0.24048 0.35506-0.37831 0.83601-0.375 1.375 7e-3 1.0777 0.76307 2.2866 1.3125 3.5 0.51704-1.1247 1.3817-2.4223 1.375-3.5-3e-3 -0.53902-0.19199-1.023-0.4375-1.375-0.12276-0.17601-0.24521-0.0325-0.40625 0.15625-0.16106 0.18837-0.40972-0.25113-0.59375-0.25zm-17.54 1.31c-0.11457 1e-3 -0.20687 0.0122-0.3125 0.0312-0.21121 0.0381-0.13574 0.27503-0.0312 0.5 0.10418 0.22483-0.3931 0.23859-0.46875 0.40625-0.0756 0.16766 0.26762 0.46337 0.0312 0.53125-0.23676 0.0681-0.42394 0.12954-0.3125 0.3125 0.22263 0.36648 0.60213 0.68458 1.0938 0.90625 0.98296 0.44322 2.3861 0.27437 3.7188 0.28125-0.80724-0.9386-1.6108-2.2755-2.5938-2.7188-0.36871-0.16615-0.78123-0.25368-1.125-0.25zm22.25 0.21875c-0.12797 0.01-0.27459 0.0334-0.40625 0.0625-1.053 0.2326-2.0531 1.2399-3.125 2.0312 1.2087 0.2694 2.6345 0.82637 3.6875 0.59375 0.52663-0.11632 0.98837-0.37376 1.2812-0.6875 0.14647-0.15688-0.0317-0.25721-0.25-0.375-0.21807-0.11785 0.16472-0.44539 0.125-0.625-0.0397-0.17959-0.49249-0.21054-0.34375-0.40625 0.14884-0.19607 0.26132-0.35753 0.0625-0.4375-0.29832-0.1205-0.64729-0.18629-1.0312-0.15625zm-16.625 0.96875c-0.0685 1.2358-0.40183 2.7499 0 3.75 0.20098 0.50022 0.54865 0.88754 0.90625 1.125 0.1788 0.11874 0.26322-0.0467 0.34375-0.28125 0.0808-0.23422 0.45422 0.0686 0.625 0s0.1263-0.52087 0.34375-0.40625c0.21789 0.11481 0.39111 0.20911 0.4375 0 0.0934-0.41847 0.0135-0.93729-0.1875-1.4375-0.40184-1.0001-1.5122-1.8226-2.4688-2.75zm9.0938 0.78125c-0.11458 1e-3 -0.23814 0.0436-0.34375 0.0625-0.21121 0.0381-0.13576 0.24378-0.0312 0.46875 0.10418 0.22482-0.3931 0.2386-0.46875 0.40625-0.0756 0.16766 0.26762 0.46337 0.0312 0.53125-0.23676 0.0681-0.42393 0.12954-0.3125 0.3125 0.22264 0.36649 0.60213 0.68457 1.0938 0.90625 0.98297 0.44323 2.3861 0.27438 3.7188 0.28125-0.80724-0.9386-1.642-2.2755-2.625-2.7188-0.3687-0.16615-0.71874-0.25364-1.0625-0.25zm-9.4688 0.71875c-1.1753 0.39003-2.7165 0.66568-3.5 1.4062-0.39185 0.37038-0.62897 0.8304-0.71875 1.25-0.0449 0.21009 0.15834 0.19907 0.40625 0.1875 0.24772-0.0106 0.0923 0.49137 0.21875 0.625 0.12645 0.13364 0.52688-0.0881 0.5 0.15625-0.0269 0.2447-0.0242 0.43977 0.1875 0.40625 0.42376-0.0668 0.88941-0.28586 1.2812-0.65625 0.78348-0.74057 1.1128-2.1455 1.625-3.375zm15.031 0.46875c-0.0626 1.1281-0.32271 2.4795-0.0625 3.4688 0.68012-0.51014 1.3991-0.97385 2.125-1.4375-0.54075-0.68803-1.3567-1.347-2.0625-2.0312zm-0.375 1.5c-1.1753 0.39004-2.6853 0.69693-3.4688 1.4375-0.39185 0.37038-0.62896 0.79916-0.71875 1.2188-0.0449 0.21009 0.15836 0.23028 0.40625 0.21875 0.24772-0.0106 0.0923 0.46012 0.21875 0.59375 0.12645 0.13364 0.49562-0.0881 0.46875 0.15625-0.0269 0.24469-0.0242 0.43978 0.1875 0.40625 0.42375-0.0668 0.88941-0.28586 1.2812-0.65625 0.78348-0.74056 1.1128-2.1455 1.625-3.375zm-56.656 6.375c-0.0329 8e-3 -0.0638 0.0495-0.0937 0.0937-0.24048 0.35506-0.40955 0.836-0.40625 1.375 7e-3 1.0777 0.79432 2.2866 1.3438 3.5 0.51705-1.1247 1.3505-2.4535 1.3438-3.5312-3e-3 -0.53902-0.16074-1.023-0.40625-1.375-0.12276-0.17601-0.24521-1e-3 -0.40625 0.1875-0.16106 0.18837-0.40972-0.25113-0.59375-0.25-0.18404 1e-3 -0.30848 0.43637-0.46875 0.25-0.12041-0.14008-0.21386-0.27606-0.3125-0.25zm5.4688 1.5312c-0.12797 0.01-0.27458 0.0334-0.40625 0.0625-1.053 0.2326-2.0844 1.2086-3.1562 2 1.2087 0.2694 2.697 0.82636 3.75 0.59375 0.52664-0.11633 0.95712-0.37376 1.25-0.6875 0.14647-0.15688-0.0317-0.25721-0.25-0.375-0.21807-0.11785 0.16471-0.44539 0.125-0.625-0.0397-0.17959-0.49249-0.21054-0.34375-0.40625 0.14884-0.19607 0.26133-0.35753 0.0625-0.4375-0.29832-0.1205-0.6473-0.15504-1.0312-0.125zm38.031 0.8125c-0.0329 8e-3 -0.095 0.0494-0.125 0.0937-0.24047 0.35505-0.37836 0.83598-0.375 1.375 7e-3 1.0777 0.79432 2.2866 1.3438 3.5 0.51705-1.1247 1.3505-2.4223 1.3438-3.5-3e-3 -0.53902-0.16074-1.023-0.40625-1.375-0.12276-0.17601-0.27648-0.0324-0.4375 0.15625-0.16106 0.18837-0.37848-0.25111-0.5625-0.25-0.18404 1e-3 -0.30848 0.43637-0.46875 0.25-0.12041-0.14008-0.21386-0.27606-0.3125-0.25zm-44.906 1.0625c0.44744 0.94351 0.91038 1.9031 1.3438 2.875 0.5601-4e-3 1.1461-0.0655 1.7188-0.0625-0.80724-0.9386-1.6733-2.2442-2.6562-2.6875-0.13211-0.0596-0.27293-0.0874-0.40625-0.125zm50.344 0.46875c-0.12061 8e-3 -0.25341 4e-3 -0.375 0.0312-1.053 0.23261-2.0531 1.2711-3.125 2.0625 0.57411 0.12796 1.1954 0.30073 1.8125 0.4375 0.54285-0.86614 1.0995-1.7137 1.6875-2.5312zm-45.39 0.59c-0.0685 1.2358-0.40183 2.7499 0 3.75 0.20098 0.50022 0.54865 0.88754 0.90625 1.125 0.1788 0.11874 0.23197-0.0467 0.3125-0.28125 0.0808-0.23422 0.45422 0.0686 0.625 0s0.12621-0.52091 0.34375-0.40625c0.21789 0.11481 0.3911 0.2091 0.4375 0 0.0934-0.41847 0.0759-0.9373-0.125-1.4375-0.40184-1.0002-1.5435-1.8226-2.5-2.75zm37.906 1.1875c-0.11458 1e-3 -0.20686 0.0122-0.3125 0.0312-0.21121 0.0381-0.13572 0.21255-0.0312 0.4375 0.10418 0.22482-0.42435 0.26985-0.5 0.4375-0.0757 0.16767 0.29882 0.43212 0.0625 0.5-0.23676 0.0681-0.45518 0.1608-0.34375 0.34375 0.22264 0.36649 0.60213 0.71583 1.0938 0.9375 0.98297 0.44323 2.4174 0.21197 3.75 0.21875-0.80724-0.93861-1.642-2.2443-2.625-2.6875-0.3687-0.16615-0.74998-0.22243-1.0938-0.21875zm-38.28 0.31c-0.92868 0.30818-2.0773 0.55132-2.9062 1 0.36547 0.83079 0.73726 1.6824 1.0938 2.5312 0.0626-0.0498 0.1278-0.13102 0.1875-0.1875 0.78347-0.74056 1.1128-2.1142 1.625-3.3438zm42.844 2.5625c-1.0481 0.30246-2.1635 0.57408-2.8125 1.1875-0.39185 0.37038-0.62897 0.79915-0.71875 1.2188-0.0449 0.21009 0.1271 0.23032 0.375 0.21875 0.24772-0.0106 0.0923 0.46011 0.21875 0.59375s0.52688-0.0881 0.5 0.15625c-0.0269 0.2447-0.0242 0.47102 0.1875 0.4375 0.0958-0.0151 0.18288-0.0313 0.28125-0.0625 2e-3 -4e-3 0.0292 4e-3 0.0312 0 0.61823-1.2932 1.2507-2.5336 1.9375-3.75zm-16.781 4.5c-0.18404 1e-3 -0.27725 0.43637-0.4375 0.25-0.16057-0.18672-0.31742-0.3342-0.4375-0.15625-0.24048 0.35506-0.34715 0.86722-0.34375 1.4062 7e-3 1.0777 0.73182 2.2554 1.2812 3.4688 0.51704-1.1247 1.3818-2.391 1.375-3.4688-3e-3 -0.53902-0.16073-1.0542-0.40625-1.4062-0.12276-0.17601-0.27647-0.0324-0.4375 0.15625-0.16106 0.18837-0.40972-0.25113-0.59375-0.25zm4.7188 1.5312c-0.12798 0.01-0.24333 0.0334-0.375 0.0625-1.053 0.23261-2.0844 1.2399-3.1562 2.0312 1.2087 0.2694 2.6658 0.82636 3.7188 0.59375 0.52664-0.11633 0.95711-0.37375 1.25-0.6875 0.14647-0.15687-2.3e-4 -0.2572-0.21875-0.375-0.21806-0.11785 0.16472-0.44539 0.125-0.625-0.0397-0.17959-0.49249-0.21054-0.34375-0.40625 0.14884-0.19607 0.26132-0.35753 0.0625-0.4375-0.29833-0.12051-0.67855-0.18633-1.0625-0.15625zm-7.5312 1.8125c-0.11458 1e-3 -0.23813 0.0123-0.34375 0.0312-0.2112 0.0381-0.13572 0.21255-0.0312 0.4375 0.0969 0.20909-0.31724 0.26457-0.4375 0.40625-0.0123 0.0521-0.0187 0.10417-0.0312 0.15625 0.0544 0.14823 0.20853 0.32409 0.0312 0.375-0.0647 0.0186-0.10428 0.0387-0.15625 0.0625-0.0307 0.12685-0.0631 0.2478-0.0937 0.375 0.2288 0.3242 0.58387 0.61077 1.0312 0.8125 0.98297 0.44323 2.4174 0.24313 3.75 0.25-0.80724-0.9386-1.642-2.2755-2.625-2.7188-0.3687-0.16615-0.74999-0.19114-1.0938-0.1875zm-21.844 0.875c-0.0342 9e-3 -0.0637 0.0493-0.0937 0.0937-7e-3 0.0119-0.0236 0.0192-0.0312 0.0312 0.48554 1.2952 0.96309 2.62 1.4375 3.9375 0.45087-0.87579 0.91125-1.7931 0.90625-2.5938-3e-3 -0.53902-0.16074-1.023-0.40625-1.375-0.12276-0.17601-0.27648-0.0324-0.4375 0.15625-0.16106 0.18837-0.37845-0.2512-0.5625-0.25-0.18404 1e-3 -0.30849 0.43638-0.46875 0.25-0.12042-0.14004-0.24114-0.27573-0.34375-0.25zm27.406 0.25c-0.0685 1.2358-0.33927 2.7499 0.0625 3.75 0.20098 0.50021 0.5174 0.91879 0.875 1.1562 0.1788 0.11874 0.23197-0.0779 0.3125-0.3125 0.0808-0.23422 0.48546 0.0999 0.65625 0.0312 0.17078-0.0686 0.095-0.52088 0.3125-0.40625 0.21789 0.11481 0.42234 0.20914 0.46875 0 0.0934-0.41847 0.0447-0.93729-0.15625-1.4375-0.40184-1.0001-1.5748-1.8539-2.5312-2.7812zm-21.938 1.2812c-0.12798 0.01-0.24334 0.0334-0.375 0.0625-1.053 0.2326-2.0531 1.2399-3.125 2.0312 1.2087 0.26939 2.6658 0.82637 3.7188 0.59375 0.52663-0.11632 0.95712-0.37376 1.25-0.6875 0.14647-0.15687-2.3e-4 -0.25721-0.21875-0.375-0.21807-0.11785 0.16472-0.44539 0.125-0.625-0.0397-0.17959-0.49248-0.17931-0.34375-0.375 0.14884-0.19607 0.23006-0.38879 0.0312-0.46875-0.29834-0.1204-0.67853-0.18632-1.0625-0.15625zm21.594 0.25c-1.1753 0.39003-2.6853 0.66568-3.4688 1.4062-0.39185 0.37038-0.66022 0.79915-0.75 1.2188-0.0449 0.21009 0.15836 0.23028 0.40625 0.21875 0.24772-0.0106 0.0923 0.46011 0.21875 0.59375s0.52688-0.0881 0.5 0.15625c-0.0269 0.24469-0.0242 0.43988 0.1875 0.40625 0.42375-0.0668 0.85816-0.28586 1.25-0.65625 0.78348-0.74057 1.144-2.1142 1.6562-3.3438zm-23.5 2.6875c-0.0685 1.2358-0.37058 2.7499 0.0312 3.75 0.20099 0.50021 0.5174 0.91879 0.875 1.1562 0.17881 0.11875 0.26321-0.0779 0.34375-0.3125 0.0808-0.23421 0.45421 0.0998 0.625 0.0312 0.17078-0.0686 0.12622-0.5209 0.34375-0.40625 0.2179 0.11482 0.3911 0.2091 0.4375 0 0.0934-0.41847 0.0759-0.93729-0.125-1.4375-0.40183-1.0001-1.5748-1.8539-2.5312-2.7812zm17.844 0.65625c-0.12798 0.01-0.24334 0.0334-0.375 0.0625-0.47384 0.10468-0.9383 0.36193-1.4062 0.6875-0.12844 0.54494-0.24569 1.1055-0.375 1.6562 0.84542 0.22167 1.6926 0.432 2.375 0.28125 0.52664-0.11633 0.95711-0.405 1.25-0.71875 0.14647-0.15687-0.0629-0.25721-0.28125-0.375-0.21807-0.11785 0.16472-0.4454 0.125-0.625-0.0397-0.1796-0.49249-0.21054-0.34375-0.40625 0.14884-0.19607 0.26132-0.35754 0.0625-0.4375-0.29832-0.1205-0.64731-0.15504-1.0312-0.125zm-18.219 0.875c-0.33632 0.11161-0.72485 0.20715-1.0938 0.3125 0.15473 0.43783 0.34613 0.87296 0.5 1.3125 0.21097-0.53273 0.36846-1.0841 0.59375-1.625zm16.281 2.0625c-0.0685 1.2358-0.40183 2.7499 0 3.75 0.20099 0.50022 0.54865 0.91879 0.90625 1.1562 0.17881 0.11875 0.26322-0.0779 0.34375-0.3125 0.0808-0.23422 0.48546 0.0998 0.65625 0.0312s0.095-0.52088 0.3125-0.40625c0.2179 0.11482 0.42234 0.17789 0.46875-0.0312 0.0934-0.41847 0.0135-0.93729-0.1875-1.4375-0.40183-1.0001-1.5435-1.8226-2.5-2.75zm12.812 3.5312c-0.0334-7e-3 -0.0784 5e-3 -0.125 0.0312-0.37383 0.21007-0.69954 0.57884-0.9375 1.0625-0.47579 0.96704-0.35526 2.3877-0.40625 3.7188 0.50499-0.40536 1.0964-0.84822 1.625-1.2812 0.25639-0.94664 0.54714-1.8803 0.8125-2.8125-0.0816-0.13106-0.14192-0.35306-0.25-0.40625-0.16515-0.0812-0.44001 0.26965-0.5 0.0312-0.0451-0.17907-0.11881-0.32296-0.21875-0.34375zm-3.75 1.9062c-0.0929 0.0428-0.0882 0.18905-0.0937 0.375-7e-3 0.24765-0.48234 0.0401-0.625 0.15625-0.14269 0.11612 0.0539 0.54478-0.1875 0.5-0.24215-0.045-0.45536-0.0885-0.4375 0.125 0.0353 0.42735 0.22186 0.92567 0.5625 1.3438 0.68109 0.83592 2.061 1.3044 3.25 1.9062-0.30243-1.2005-0.47516-2.7578-1.1562-3.5938-0.34064-0.41808-0.77547-0.69183-1.1875-0.8125-0.0515-0.0153-0.094-0.0143-0.125 0zm-19.531 3.2812c-0.18404 1e-3 -0.246 0.43637-0.40625 0.25-0.16057-0.18672-0.34867-0.3342-0.46875-0.15625-0.24049 0.35505-0.34714 0.86722-0.34375 1.4062 7e-3 1.0777 0.73183 2.2554 1.2812 3.4688 0.51704-1.1247 1.3818-2.391 1.375-3.4688-3e-3 -0.53902-0.16074-1.0542-0.40625-1.4062-0.12276-0.17601-0.24522-0.0324-0.40625 0.15625-0.16106 0.18837-0.44097-0.25113-0.625-0.25zm20.562 1.1562c-0.30372-1.1e-4 -0.58578 0.047-0.84375 0.125-0.51611 0.15613-0.95081 0.41482-1.2188 0.75-0.13395 0.16759 0.0545 0.27418 0.28125 0.375 0.22643 0.10088-0.11588 0.44892-0.0625 0.625 0.0534 0.17607 0.47694 0.16877 0.34375 0.375-0.13348 0.20686-0.23562 0.37288-0.0312 0.4375 0.40886 0.12977 0.92141 0.15612 1.4375 0 0.63498-0.19209 1.2394-0.67118 1.8438-1.2188 0.10162-0.397 0.21003-0.7924 0.3125-1.1875-0.70152-0.13191-1.4128-0.28178-2.0625-0.28125zm-15.844 0.375c-0.12798 0.01-0.24334 0.0334-0.375 0.0625-1.053 0.23261-2.0844 1.2711-3.1562 2.0625 1.2087 0.2694 2.6658 0.79511 3.7188 0.5625 0.52664-0.11633 0.95712-0.37376 1.25-0.6875 0.14647-0.15687-0.0317-0.25721-0.25-0.375-0.21807-0.11785 0.16472-0.4454 0.125-0.625-0.0397-0.1796-0.49249-0.21054-0.34375-0.40625 0.14884-0.19607 0.26132-0.35754 0.0625-0.4375-0.29836-0.12041-0.64731-0.18629-1.0312-0.15625zm-6.8125 1.9375c0.31973 0.94782 0.64813 1.8665 0.96875 2.8125 0.65006 0.0103 1.3536-0.0348 2.0312-0.0312-0.80724-0.9386-1.642-2.2443-2.625-2.6875-0.1229-0.0553-0.251-0.0571-0.375-0.0937zm4.8438 1.0312c-0.0685 1.2358-0.37058 2.7499 0.0312 3.75 0.20099 0.50022 0.5174 0.88754 0.875 1.125 0.17881 0.11875 0.26322-0.0779 0.34375-0.3125 0.0808-0.23422 0.48546 0.0998 0.65625 0.0312s0.095-0.52088 0.3125-0.40625c0.2179 0.11482 0.42234 0.20914 0.46875 0 0.0934-0.41847 0.0447-0.93729-0.15625-1.4375-0.40183-1.0001-1.5748-1.8226-2.5312-2.75zm-0.3125 1.5312c-1.0673 0.35419-2.422 0.58955-3.25 1.1875 0.29674 0.87321 0.57649 1.7554 0.875 2.625 0.2381-0.11403 0.47346-0.26643 0.6875-0.46875 0.78347-0.74057 1.1753-2.1142 1.6875-3.3438zm6.0625 2.0312c-0.18404 1e-3 -0.30848 0.43637-0.46875 0.25-0.12041-0.14008-0.21386-0.24481-0.3125-0.21875-0.0328 8e-3 -0.0638 0.0495-0.0937 0.0937-0.24047 0.35505-0.40955 0.836-0.40625 1.375 7e-3 1.0777 0.79432 2.2554 1.3438 3.4688 0.51705-1.1247 1.3505-2.4223 1.3438-3.5-3e-3 -0.53902-0.16074-1.023-0.40625-1.375-0.12276-0.17601-0.24521-0.0324-0.40625 0.15625-0.16106 0.18837-0.40972-0.25113-0.59375-0.25zm4.6875 1.5312c-0.12797 0.01-0.27458 0.0646-0.40625 0.0937-1.053 0.2326-2.0219 1.2086-3.0938 2 1.2087 0.2694 2.6345 0.79512 3.6875 0.5625 0.52663-0.11632 0.98836-0.3425 1.2812-0.65625 0.14647-0.15687-0.0317-0.28846-0.25-0.40625-0.21807-0.11785 0.16472-0.44539 0.125-0.625-0.0397-0.17959-0.49248-0.17931-0.34375-0.375 0.14884-0.19607 0.23008-0.35753 0.0312-0.4375-0.29832-0.1205-0.64731-0.1863-1.0312-0.15625zm-7.5 1.7812c-0.11457 1e-3 -0.23814 0.0123-0.34375 0.0312-0.21121 0.0381-0.13572 0.21255-0.0312 0.4375 0.10418 0.22482-0.3931 0.26984-0.46875 0.4375-0.0756 0.16766 0.26762 0.46337 0.0312 0.53125-0.23675 0.0681-0.42394 0.12955-0.3125 0.3125 0.22263 0.36649 0.60213 0.71582 1.0938 0.9375 0.98296 0.44322 2.3861 0.21188 3.7188 0.21875-0.80724-0.9386-1.642-2.213-2.625-2.6562-0.3687-0.16615-0.71874-0.25365-1.0625-0.25zm5.5625 1.1875c-0.0685 1.2358-0.37058 2.7499 0.0312 3.75 0.20098 0.50021 0.5174 0.88754 0.875 1.125 0.17881 0.11875 0.26321-0.0467 0.34375-0.28125 0.0808-0.23421 0.45422 0.0373 0.625-0.0312 0.17079-0.0686 0.1263-0.52087 0.34375-0.40625 0.2179 0.11482 0.39111 0.20911 0.4375 0 0.0934-0.41847 0.0759-0.9373-0.125-1.4375-0.40183-1.0001-1.5748-1.7914-2.5312-2.7188zm-0.375 1.5c-1.1753 0.39003-2.654 0.66569-3.4375 1.4062-0.39185 0.37039-0.66022 0.83039-0.75 1.25-0.0449 0.21009 0.15834 0.19907 0.40625 0.1875 0.24772-0.0106 0.0923 0.46012 0.21875 0.59375 0.12645 0.13364 0.52675-0.0565 0.5 0.1875-0.0269 0.2447-0.0554 0.43986 0.15625 0.40625 0.42376-0.0668 0.8894-0.31712 1.2812-0.6875 0.78347-0.74056 1.1128-2.1142 1.625-3.3438zm0.65625 11.125c-0.0329 8e-3 -0.095 0.0494-0.125 0.0937-0.24048 0.35506-0.37837 0.83598-0.375 1.375 7e-3 1.0777 0.79431 2.2866 1.3438 3.5 0.51704-1.1247 1.3505-2.4535 1.3438-3.5312-3e-3 -0.53902-0.16074-1.023-0.40625-1.375-0.12276-0.17601-0.27647-1e-3 -0.4375 0.1875-0.16106 0.18837-0.37848-0.25111-0.5625-0.25-0.18404 1e-3 -0.30849 0.43636-0.46875 0.25-0.12041-0.14008-0.21386-0.27606-0.3125-0.25zm4.6562 1.6875c-0.91503 0.36321-1.8121 1.2138-2.75 1.9062 0.64393 0.14355 1.344 0.39348 2.0312 0.53125 0.2371-0.81349 0.49062-1.6209 0.71875-2.4375zm-6.75 1.5938c-0.11457 1e-3 -0.20686 0.0122-0.3125 0.0312-0.21121 0.0381-0.13572 0.21255-0.0312 0.4375 0.10418 0.22482-0.42435 0.26984-0.5 0.4375-0.0756 0.16766 0.29882 0.46337 0.0625 0.53125-0.23676 0.0681-0.42394 0.12955-0.3125 0.3125 0.22263 0.36649 0.60212 0.71581 1.0938 0.9375 0.98296 0.44322 2.4174 0.21187 3.75 0.21875-0.80724-0.9386-1.6733-2.213-2.6562-2.6562-0.3687-0.16615-0.74998-0.25368-1.0938-0.25zm5.5938 1.1562c-0.0293 0.52949-0.082 1.1116-0.125 1.6875 0.14511-0.47947 0.26466-0.9566 0.40625-1.4375-0.0921-0.0853-0.19182-0.16334-0.28125-0.25zm-0.34375 1.5312c-1.1753 0.39004-2.7165 0.66568-3.5 1.4062-0.39185 0.37038-0.62897 0.8304-0.71875 1.25-0.0449 0.21009 0.12711 0.19902 0.375 0.1875 0.24772-0.0106 0.0923 0.46011 0.21875 0.59375s0.52675-0.0565 0.5 0.1875c-0.0269 0.24469 7e-3 0.43977 0.21875 0.40625 0.42377-0.0668 0.85816-0.31711 1.25-0.6875 0.78348-0.74056 1.144-2.1142 1.6562-3.3438zm-14.78 1.65c-0.0831 0.0163-0.15169 0.13441-0.25 0.25-0.0983 0.11556-0.24754-0.0148-0.375-0.125-0.32241 1.0401-0.63063 2.1042-0.96875 3.1562 0.25307 0.55313 0.55139 1.1146 0.8125 1.6875 0.51599-1.1245 1.3505-2.4224 1.3438-3.5-3e-3 -0.54279-0.16236-1.0239-0.40625-1.375-0.0479-0.067-0.10487-0.10592-0.15625-0.0937zm3.8125 1.5312c-0.12797 0.01-0.24334 0.0334-0.375 0.0625-1.0529 0.23259-2.0532 1.2399-3.125 2.0312 1.2087 0.26939 2.6658 0.79511 3.7188 0.5625 0.52662-0.11632 0.95711-0.34253 1.25-0.65625 0.14647-0.15687-2.7e-4 -0.28852-0.21875-0.40625-0.21803-0.11784 0.16482-0.4454 0.125-0.625-0.0397-0.1796-0.52373-0.17932-0.375-0.375 0.14895-0.19607 0.26132-0.35764 0.0625-0.4375-0.29834-0.1204-0.67853-0.18632-1.0625-0.15625zm-5.6562 2.5625c-0.23317 0.72258-0.50897 1.4257-0.75 2.1562 0.80076 0.0663 1.7141-0.0371 2.5938-0.0312-0.59469-0.69362-1.1704-1.527-1.8438-2.125zm3.75 0.375c-0.0685 1.2358-0.37059 2.7812 0.0312 3.7812 0.20096 0.50019 0.51741 0.88753 0.875 1.125 0.1788 0.11874 0.26322-0.0779 0.34375-0.3125 0.0809-0.2343 0.45422 0.0686 0.625 0 0.17079-0.0686 0.12628-0.52083 0.34375-0.40625 0.21791 0.11514 0.39102 0.20907 0.4375 0 0.0934-0.41846 0.0447-0.9373-0.15625-1.4375-0.40183-1.0001-1.5435-1.8226-2.5-2.75zm-0.375 1.5312c-1.1753 0.39001-2.6853 0.66568-3.4688 1.4062-0.39185 0.37038-0.62897 0.79915-0.71875 1.2188-0.0449 0.2101 0.15836 0.23029 0.40625 0.21875 0.24759-0.0105 0.0923 0.46005 0.21875 0.59375 0.12643 0.13364 0.49562-0.11921 0.46875 0.125-0.0269 0.24471-0.0242 0.47102 0.1875 0.4375 0.42376-0.0668 0.88938-0.28587 1.2812-0.65625 0.78347-0.74057 1.1127-2.1142 1.625-3.3438zm2.0938 9.4688c-0.18403 1e-3 -0.3085 0.46762-0.46875 0.28125-0.12045-0.13999-0.24512-0.27607-0.34375-0.25-0.0329 8e-3 -0.0638 0.0495-0.0937 0.0937-0.24048 0.35506-0.37836 0.83598-0.375 1.375 7e-3 1.0777 0.79432 2.2554 1.3438 3.4688 0.51704-1.1247 1.3505-2.4222 1.3438-3.5-3e-3 -0.53901-0.16073-1.023-0.40625-1.375-0.12276-0.17601-0.27647-0.0324-0.4375 0.15625-0.16106 0.18837-0.37848-0.25111-0.5625-0.25zm4.24 1.66c-1.0303 0.25781-2.0124 1.1934-3.0625 1.9688 0.57411 0.12796 1.1954 0.33197 1.8125 0.46875 0.42975-0.80925 0.84529-1.6124 1.25-2.4375zm-6.6875 1.6875 1.875 2.9375c0.48967-0.0152 0.97938-0.065 1.4688-0.0625-0.80724-0.9386-1.642-2.213-2.625-2.6562-0.23909-0.10776-0.48239-0.1823-0.71875-0.21875zm4.3125 2.8125c-0.69584 0.20383-1.4308 0.37503-2.0625 0.65625l0.91 1.34c0.40552-0.66357 0.77094-1.3232 1.1562-2z" fill="#fff" fill-opacity=".71094" fill-rule="evenodd"/>
   <path transform="matrix(.94127 -.33765 .33765 .94127 -99.45 82.596)" d="m246.19 329.5c0.0427 6.6196 0.51633 12.696 1.25 18.188 7.4645 0.208 16.291 1.691 26.844 4.625 6.0782 0.92702 11.071 3.2172 14.969 6.2188 0.0117 8e-3 0.0195 0.0228 0.0312 0.0312 0.17523 0.12616 0.36167 0.24567 0.53125 0.375-18.76-20.442-33.368-27.245-43.625-29.438zm11.594 40.594c-0.24526 4e-3 -0.47632 0.0247-0.71875 0.0312 0.53367-0.0143 1.0775-0.0303 1.625-0.0312-0.30049 6.1e-4 -0.60993-5e-3 -0.90625 0zm40.656 1.3125c0.10362 0.33833 0.19557 0.69381 0.28125 1.0312-0.0872-0.34205-0.17552-0.68831-0.28125-1.0312zm-57.375 1.75c-0.44345 0.17659-0.88323 0.3718-1.3125 0.5625 0.43001-0.1913 0.86826-0.38537 1.3125-0.5625zm-60.531 1.4375c-2.0984 0.0377-4.7253 1.7619-8.6562 5.2812 8.4742 15.466 14.196 36.435 21.062 55.125-1.063 3.9449-2.1916 7.9854-3.4375 12.094 3.6046-11.844 6.3168-22.975 8.75-33.312-2.7885-7.9672-10.387-38.941-17.719-39.188zm8.9688 72.5c-0.62292 2.0542-1.2896 4.1284-1.9688 6.2188 0.68107-2.0907 1.3435-4.1645 1.9688-6.2188zm-1.9688 6.2188c-0.67917 2.0903-1.3826 4.1891-2.125 6.3125l5.125 7.7812-5.0938-7.7812c0.74068-2.1184 1.4146-4.2278 2.0938-6.3125zm49.16-78.06c-0.49285 0.2795-0.96482 0.57517-1.4375 0.875 0.46973-0.29822 0.94786-0.59686 1.4375-0.875zm62.562 0.1875c0.0315 0.32965 0.0491 0.64341 0.0625 0.96875-0.0135-0.31797-0.0316-0.64668-0.0625-0.96875zm-65.531 1.7188c-0.40421 0.28847-0.79844 0.5711-1.1875 0.875 0.38021-0.29656 0.79284-0.59315 1.1875-0.875zm-1.1875 0.875c-0.85692 0.66935-1.6818 1.3838-2.4688 2.125 0.79257-0.74637 1.6052-1.4515 2.4688-2.125zm-3.625 3.2812c-0.37883 0.39016-0.76231 0.78051-1.125 1.1875 0.3633-0.40746 0.74552-0.79691 1.125-1.1875zm-3.2188 3.7188c-0.33466 0.44194-0.64856 0.88636-0.96875 1.3438 0.31849-0.45488 0.63595-0.90414 0.96875-1.3438zm-0.96875 1.3438c-0.32169 0.45954-0.62978 0.93168-0.9375 1.4062 0.3048-0.46961 0.61901-0.95137 0.9375-1.4062zm-2.6875 4.3125c-1.6723 2.9806-3.1337 6.1898-4.4375 9.5938 1.3062-3.4096 2.7618-6.6089 4.4375-9.5938zm-4.4375 9.5938c-0.41016 1.0708-0.80509 2.1447-1.1875 3.25 0.38109-1.1007 0.7789-2.1834 1.1875-3.25zm-16.25 0.40625c-0.95243 3.9589-1.8962 8.0461-2.9062 12.344 1.0032-4.2688 1.9576-8.3969 2.9062-12.344zm13.812 6.6562c-0.37427 1.1979-0.74023 2.4288-1.0938 3.6562 0.35708-1.2396 0.71555-2.4467 1.0938-3.6562zm-1.08 3.65c-0.35828 1.244-0.68927 2.5112-1.0312 3.7812 0.34093-1.2654 0.67417-2.5416 1.0312-3.7812zm-5.9688 23.375c-0.64935 2.5817-1.3213 5.1752-2.0312 7.75 0.71228-2.5804 1.3799-5.1626 2.0312-7.75zm-2.7188 10.188c-0.37882 1.3196-0.78233 2.6286-1.1875 3.9375 0.40547-1.3084 0.80839-2.6184 1.1875-3.9375zm-1.1875 3.9375c-0.4525 1.4619-0.91435 2.9008-1.4062 4.3438 0.48933-1.4346 0.95588-2.8905 1.4062-4.3438zm-2.5312 7.5312c-0.30418 0.82519-0.61658 1.6529-0.9375 2.4688 0.32174-0.8172 0.63256-1.6421 0.9375-2.4688z" fill="none" stroke="#000" stroke-width="1px"/>
   <path d="m310.02 337.66c-2.7-9.7112-15.322-19.375-32.343-16.047-79.291 5.8166-48.033 52.358-47.399 131l12.298 9.297c11.18-54.02-38.32-122.91 67.44-124.25z" fill="none" stroke="#000" stroke-width="1px"/>
  </g>
  <path transform="matrix(.94127 .33765 -.33765 .94127 121.5 -44.167)" d="m148 107.59c-14.426 0.086-25.979 4.8-31.982 16.096-5.947 11.186-5.1784 34.451 6.7474 57.45-0.53092 0.40412-1.0579 0.82014-1.5848 1.248-9.3306 11.054-20.773 34.684-18.463 55.37 3.7758 3.9026 19.719-0.0436 38.483-11.526 13.99 1.4105 27.683 8.8908 34.149 24.763-0.80035-9.5723-3.9185-18.966-7.8766-24.997 2.7734 4.1403 6.4344 10.904 9.2395 26.272 10.908 0.63789 15.5 6.0857 25.179 31.348 3.0548-20.199 15.452-27.37 27.441-27.536 2.8844 10.444 6.3947 13.253 8.7839 32.081-0.81222-17.695-3.3162-28.768-3.649-32.116 9.2712-4.0453 49.09 17.675 55.916 8.2213 5.6459-8.1301-2.7299-27.203-19.176-41.823 7.9003 3.1657 13.277 3.7758 15.943-1.0658 11.213-15.305-12.397-59.213-55.528-84.851-27.572-16.386-59.581-29.077-83.623-28.934z" color="#000000"/>
  <path d="m135 176.86 186.33 29.524c14.291 2.9513 13.134 14.868-2.0148 12.668l-186.34-29.53c-12.07-2.5995-9.575-13.943 2.0149-12.668z" color="#000000" fill="#ffd42a" stroke="#000"/>
  <path transform="matrix(.94127 .33765 -.33765 .94127 121.5 -44.167)" d="m110.38 278.99c-0.36451 4e-3 -0.70524 0.0278-1.0262 0.0595 0.18224 0.56261 0.37638 1.1252 0.56657 1.6839 0.89542-0.15849 1.989-0.23773 3.4787-0.15849 3.3876 0.17433 8.1143 0.78449 14.636 2.9715l-0.0114-0.0515c-6.4819-2.4327-11.161-3.7639-14.561-4.2711-0.85183-0.12678-1.6284-0.19414-2.3257-0.22187-0.26546-0.0114-0.51508-0.0158-0.75677-0.0114z" fill-rule="evenodd"/>
  <path transform="matrix(.94127 .33765 -.33765 .94127 121.5 -44.167)" d="m163.12 260.95c-3.4586 0.13677-7.0821 1.1931-10.546 2.9147-6.9276 3.4472-13.296 9.556-16.774 16.385l0.36087 0.18559c3.4312-6.7415 10.487-11.477 17.702-14.021 7.2461-2.5563 14.638-3.3022 20.184 0.51936l-1.3253-3.3734c-2.8522-1.9642-6.146-2.7468-9.6007-2.61z" fill-rule="evenodd"/>
  <path transform="matrix(.94127 .33765 -.33765 .94127 121.5 -44.167)" d="m128.2 283.56c-0.22853-0.11953-0.28764-0.0418-0.0391 0.0586 2.5701 1.5548 4.8972 3.818 6.1414 6.2973 1.0376 2.1462 2.9745 8.6759 4.471 14.804s2.3982 12.37 2.6648 14.781c0.35447 3.1918 0.4928 5.3765 0.90625 7.125s1.1404 3.0589 2.5938 4.2188h0.0312c1.4787 1.0599 3.1692 1.147 4.7188 0.6875 1.5496-0.45954 3.0087-1.4374 4.1875-2.4688 0.3927-0.35997 0.0146-0.62383-0.37814-0.26386-1.1036 0.96556-2.4811 1.8071-3.8254 2.2058-1.3443 0.39868-3.1207 0.37962-4.3299-0.48705-1.2929-1.0376-2.0483-2.201-2.4268-3.8018-1.2901-8.5772-1.9178-15.412-3.571-22.216-1.5018-6.1499-3.3552-12.171-4.5205-14.581-0.85361-1.7665-2.2456-3.3706-3.6045-4.5442-0.92708-0.82866-1.9825-1.3803-3.0193-1.8162z" color="#000000" fill="#787878" style="block-progression:tb;text-indent:0;text-transform:none"/>
  <path transform="matrix(.94127 .33765 -.33765 .94127 121.5 -44.167)" d="m163.94 323.33c0.24039-3.3034-2.2346-6.4015-6.1526-4.9763" fill="none" stroke="#787878" stroke-linecap="round" stroke-linejoin="round" stroke-width=".5"/>
  <g transform="matrix(.94127 .33765 -.33765 .94127 124.96 -43.456)">
   <path d="m164.16 337.66c-0.76665 0.30947-1.2585 0.5372-1.8125 0.78125-2.2878 1.3765-2.7986 1.9872-6.7188 3.3125-2.7892 0.94291-4.6864 1.4063-6.5 1.625 0.0399 0.17364 0.0691 0.37215 0.15625 0.59375 0.55351 1.4 4.1034 2.1017 8.0938 0.84375 3.9903-1.258 6.6746-4.4639 6.7812-7.1562z" color="#000000" fill="url(#l)"/>
   <path d="m162.33 338.44c-2.2878 1.3765-2.7983 1.9874-6.7185 3.3126-2.8045 0.94809-4.6843 1.4199-6.5072 1.637-0.54635-2.8478 2.3589-3.059 4.0584-2.7844 1.2689-2.042 4.1346-2.7392 9.1673-2.1652z" color="#000000" fill="#e77e66" fill-opacity=".76172"/>
   <path d="m161.79 338.77c-1.8547 1.1521-2.5852 1.7666-6.1752 2.9803-2.4627 0.83255-4.2124 1.2978-5.8366 1.5459" color="#000000" fill="none" stroke="#964545" stroke-linecap="round" stroke-linejoin="round" stroke-width=".4"/>
  </g>
  <path transform="matrix(.94127 .33765 -.33765 .94127 121.5 -44.167)" d="m167.88 281.59c-7.6027 2.1305-18.954 4.3498-21.4 13.567 1.6935-2.2544 7.8002-3.2507 15.264-5.7218 2.9196-0.96739 6.3338-6.8837 6.1364-7.8452z" fill="none" stroke="#000" stroke-linecap="round" stroke-linejoin="round" stroke-width=".99999px"/>
  <path transform="matrix(.94127 .33765 -.33765 .94127 121.5 -44.167)" d="m118.36 293.93c-0.85184 0.0198-1.7393 0.0911-2.6625 0.19811 0.59034 1.3629 1.3879 4.3398 1.9941 5.7146 6.2218-0.49715 11.645-0.44922 14.764 0.45798-3.8868-3.4985-8.1124-6.4935-14.095-6.3707z" fill="none" stroke="#000" stroke-linecap="round" stroke-linejoin="round" stroke-width="1px"/>
  <path transform="matrix(.94127 .33765 -.33765 .94127 121.5 -44.167)" d="m116.43 166c1.5928 4.9922 3.6966 10.107 6.3393 15.206-0.53091 0.40809-1.0579 0.82014-1.5848 1.252-9.3306 11.054-20.773 34.684-18.463 55.37 3.7758 3.8979 19.719-0.0455 38.483-11.53 11.011 1.1133 21.831 5.9851 29.097 15.75h3.6134c-1.4501-6.2165-3.7441-11.879-6.4383-15.984 2.0563 3.0706 4.588 7.5933 6.9098 15.984l38.162-14.407c5.2101-21.989 30.179-35.203 29.616-61.039l-125.74-0.60224z" color="#000000"/>
  <g transform="matrix(.37294 .13378 -.13378 .37294 131.49 50.754)" fill="#ffd42a" stroke="#000" stroke-width="2.524">
   <path d="m251.5 188.94c-76.31-0.05-110.03 24.95-117.66 69-0.11 4.02-0.01 1.39-0.09 5.77 13.16-57.45 75.185-82.622 226.75-54.822 22.884 23.33 44.508 60.676 65.904 83.143 7.8598 8.2533 13.018 5.4641 23.382 9.949 1.21-3.64 0.91-2.05 1.74-5.14-34.01-34.68-55.9-61.28-89.91-95.96-43.89-8.05-80.26-11.92-110.12-11.94z" color="#000000"/>
   <path d="m133.85 263.94c10.6-61.28 71.72-85.7 227.78-57.08 34.01 34.69 53.167 58.724 87.177 93.404-214.66-59.94-253.35-50.63-275.06-9.55-18.86-9.94-22.06-13.3-39.9-26.77z" color="#000000" fill="#ffd42a" stroke="#000" stroke-opacity=".46484"/>
  </g>
  <path transform="matrix(.94127 .33765 -.33765 .94127 121.5 -44.167)" d="m55.013 232.12c0.9012-0.23434 2.0998 0.46334 2.952 1.8124 0.33114 0.52511 0.57048 1.0928 0.7145 1.6409l17.105-5.3134-0.28226-0.90865s78.051-24.54 102.95-31.981c1.0982-0.3271 2.5094 4.2162 1.4192 4.5689-24.736 7.9785-102.95 31.981-102.95 31.981l-0.28226-0.90866-18.915 5.8756-0.03777-0.12158c-0.9026 0.23828-2.105-0.45471-2.9592-1.8102-1.0486-1.6599-1.1733-3.684-0.2792-4.5161 0.16891-0.15772 0.35851-0.26573 0.565-0.31935z" color="#000000" fill="#ffd42a" stroke="#000"/>
  <path transform="matrix(.94127 .33765 -.33765 .94127 121.5 -44.167)" d="m179.97 199.31-99.117 30.79" fill="none" stroke="#000" stroke-opacity=".46484" stroke-width="1px"/>
  <path transform="matrix(.94127 .33765 -.33765 .94127 121.5 -44.167)" d="m82.865 238.95a9.1578 4.7082 72.744 1 0 -5.4332 -17.491 9.1578 4.7082 72.744 1 0 5.4332 17.491z" color="#000000" fill="#ffd42a" stroke="#000" stroke-width=".99999"/>
  <path transform="matrix(.94127 .33765 -.33765 .94127 121.5 -44.167)" d="m237.78 211.02c-1.243 0.0436-2.496 1.0654-3.0487 2.6065-0.21442 0.59969-0.29483 1.2128-0.26132 1.779h-23.934v-0.95148s-109.33-0.28142-144.06 0c-1.5311 0.0134-1.5311 4.7708 0 4.7842 34.729 0.28142 144.06 0 144.06 0v-0.95148h26.467v-0.12731c1.2463-0.0402 2.506-1.0587 3.0588-2.6065 0.68011-1.8962 0.0369-3.8662-1.4339-4.3956-0.27807-0.1005-0.56284-0.14741-0.84761-0.13736z" color="#000000" fill="#ffd42a" stroke="#000"/>
  <path transform="matrix(.94127 .33765 -.33765 .94127 121.5 -44.167)" d="m65.314 216.76h138.69" fill="none" stroke="#000" stroke-opacity=".46484" stroke-width="1px"/>
  <path transform="matrix(.94127 .33765 -.33765 .94127 121.5 -44.167)" d="m204.95 225.81a6.2915 9.1577 0 1 1 0 -18.315 6.2915 9.1577 0 1 1 0 18.315z" color="#000000" fill="#ffd42a" stroke="#000" stroke-width=".99998"/>
  <path transform="matrix(.94127 .33765 -.33765 .94127 121.5 -44.167)" d="m110 200.67c-5.0952 11.185-8.669 24.66-7.2822 37.081 3.7758 3.9026 19.719-0.0436 38.483-11.526 0.74884 0.0753 1.4937 0.17433 2.2425 0.28527l1.6561-25.84h-35.1z" color="#000000"/>
  <g transform="matrix(.68574 .24598 -.24598 .68574 142.92 78.069)">
   <path transform="matrix(-.64696 .073341 .074151 .65411 328.38 55.458)" d="m201.03 252.72a9.8214 32.321 0 1 1 12.44 -35.67" color="#000000" fill="none" stroke="#000" stroke-width="2.0966"/>
   <path transform="matrix(-.99364 .11264 .11264 .99364 391 -23.07)" d="m210.97 243.56a9.8214 32.321 0 1 1 2.5 -26.51" color="#000000" fill="none" stroke="#000" stroke-width="1.3726"/>
   <path transform="translate(4.5337,-3.4177)" d="m210.24 216.79c1.01-9.47-2.65-13.89-2.65-13.89s1.13 1.26 0.75 6.69c-0.37 5.43-1.13 8.72-1.13 8.72l3.03-1.52z" fill="url(#i)" fill-rule="evenodd"/>
  </g>
  <path transform="matrix(.94127 .33765 -.33765 .94127 121.5 -44.167)" d="m82.865 238.95a9.1578 4.7082 72.744 1 0 -5.4332 -17.491 9.1578 4.7082 72.744 1 0 5.4332 17.491z" color="#000000" fill="url(#b)" opacity=".61742"/>
  <path transform="matrix(.94127 .33765 -.33765 .94127 121.5 -44.167)" d="m204.95 225.81a6.2915 9.1577 0 1 1 0 -18.315 6.2915 9.1577 0 1 1 0 18.315z" color="#000000" fill="url(#b)" opacity=".61742"/>
  <path transform="matrix(.94127 .33765 -.33765 .94127 121.5 -44.167)" d="m161.33 324.06c-1.8351-0.78449-3.8515 0.94989-5.2072 2.7884" fill="none" stroke="#787878" stroke-linecap="round" stroke-linejoin="round" stroke-width=".5"/>
  <path transform="matrix(.94127 .33765 -.33765 .94127 121.5 -44.167)" d="m118.36 293.93c-0.85184 0.0198-1.7393 0.0911-2.6625 0.19811 0.59034 1.3629 1.3879 4.3398 1.9941 5.7146 6.2218-0.49715 11.645-0.44922 14.764 0.45798-3.8868-3.4985-8.1124-6.4935-14.095-6.3707z" fill="none" stroke="#000" stroke-linecap="round" stroke-linejoin="round" stroke-width="1px"/>
  <path transform="matrix(.99955 .030125 -.030125 .99955 7.4752 -3.7249)" d="m135.97 272.81c-1.3752 1.1349-2.25 2.8591-2.25 4.7812 0 0.18161 0.0159 0.35361 0.0312 0.53125 4.3685 1.1184 8.1155 2.3865 10.656 3.7188 0.20538-0.21731 0.39006-0.44222 0.5625-0.6875-2.1806-3.5044-4.8383-6.6208-9-8.3438zm41.25 2.7188c-2.8969 9e-3 -5.8455 0.25018-8.5312 1.0312-0.14534 0.52588-0.21875 1.0842-0.21875 1.6562 0 1.1068 0.30335 2.1323 0.8125 3.0312 2.3331 0.0745 4.8904 0.17212 7.8125 0.15625 1.0058-6e-3 2.2178-0.52427 3.4062-1.2188 0.20841-0.61974 0.34375-1.2788 0.34375-1.9688 0-0.94079-0.21807-1.8266-0.59375-2.625-0.99619-0.0396-2.0052-0.0656-3.0312-0.0625z"/>
  <path transform="matrix(.12903 0 0 .12903 151.53 243.75)" d="m178.46 277.96c0 3.0266-2.4535 5.4801-5.4801 5.4801s-5.4801-2.4535-5.4801-5.4801 2.4535-5.4801 5.4801-5.4801 5.4801 2.4535 5.4801 5.4801z" fill="#8f8f8f"/>
  <path transform="matrix(.12903 0 0 .12903 117.33 241.98)" d="m178.46 277.96c0 3.0266-2.4535 5.4801-5.4801 5.4801s-5.4801-2.4535-5.4801-5.4801 2.4535-5.4801 5.4801-5.4801 5.4801 2.4535 5.4801 5.4801z" fill="#8f8f8f"/>
 </g>
</svg>
